<svg width="12" height="20" viewBox="0 0 12 20" fill="none" xmlns="http://www.w3.org/2000/svg">
<path d="M1.73236 19.9969C2.05001 19.8931 2.27943 19.673 2.50885 19.4426C5.38231 16.5663 8.25715 13.6915 11.1334 10.818C11.5413 10.4101 11.6223 9.93669 11.3649 9.49758C11.3024 9.39866 11.2274 9.30828 11.1417 9.22871C8.20179 6.28951 5.26258 3.35031 2.32407 0.411105C2.01264 0.099676 1.65969 -0.0435815 1.22991 0.099676C1.05097 0.15215 0.891007 0.255219 0.76927 0.396479C0.647532 0.537738 0.569211 0.711169 0.543732 0.895899C0.519365 1.02728 0.523239 1.16234 0.555099 1.2921C0.586958 1.42187 0.646076 1.54336 0.728517 1.64852C0.796468 1.73551 0.87072 1.8174 0.950671 1.89351C3.60889 4.54966 6.26885 7.2058 8.93053 9.86195C9.05095 9.98237 9.06237 10.0436 8.93053 10.1734C6.25362 12.8413 3.57983 15.513 0.909144 18.1885C0.493905 18.6038 0.409822 19.0855 0.67765 19.5235C0.832327 19.7758 1.07732 19.8972 1.33892 19.9969H1.73236Z" fill="#222222"/>
</svg>
