<svg width="26" height="26" viewBox="0 0 26 26" fill="none" xmlns="http://www.w3.org/2000/svg">
<path d="M8.08127 2.1709C8.51291 2.26893 8.90294 2.4368 9.19493 2.79085C9.44513 3.0881 9.58863 3.46052 9.60259 3.8488C9.62051 4.4892 9.67065 5.1283 9.75282 5.76367C9.86073 6.48801 10.0695 7.18696 10.2529 7.89366C10.3939 8.4452 10.262 8.94667 9.91574 9.39876C9.30496 10.1965 8.70052 10.9998 8.09115 11.7968C8.06452 11.8232 8.04791 11.858 8.04418 11.8954C8.04045 11.9327 8.04982 11.9701 8.07069 12.0013C9.14415 14.0043 10.547 15.714 12.4604 16.9764C12.9358 17.2896 13.4253 17.5774 13.9176 17.863C13.9551 17.8925 14.0022 17.9072 14.0498 17.9045C14.0975 17.9018 14.1425 17.8817 14.1764 17.8482C14.9899 17.2242 15.8061 16.605 16.6252 15.9904C16.8233 15.8364 17.0548 15.7311 17.301 15.683C17.5473 15.6348 17.8014 15.6452 18.0429 15.7133C18.7016 15.8847 19.3519 16.0871 20.0261 16.1943C20.6801 16.2927 21.3398 16.3485 22.001 16.3614C22.8657 16.3847 23.487 16.8551 23.7198 17.6528C23.7679 17.8295 23.7902 18.0122 23.7861 18.1952C23.7861 19.4473 23.7861 20.6997 23.7861 21.9523C23.7861 23.0589 23.0265 23.8016 21.9227 23.7861C18.2883 23.7445 14.9029 22.8078 11.7918 20.9247C9.05173 19.2761 6.75029 16.9902 5.08323 14.2614C3.41617 11.5325 2.4328 8.4414 2.21674 5.25092C2.21251 5.1952 2.24989 5.12115 2.1709 5.08377V4.87218C2.21251 4.81787 2.18359 4.75581 2.19276 4.69727C2.19276 4.65706 2.19276 4.61616 2.19276 4.57595V4.42361C2.18641 4.37565 2.20969 4.32346 2.1716 4.28255V3.69151C2.22662 3.01796 2.59478 2.57221 3.1837 2.28092C3.34733 2.19911 3.52577 2.22521 3.69151 2.17442L8.08127 2.1709Z" fill="#A7A7A7"/>
<path d="M2.20617 4.41023V4.5788C2.19277 4.59643 2.18078 4.59572 2.16949 4.5788V4.40952C2.1836 4.38907 2.19559 4.38978 2.20617 4.41023Z" fill="#A7A7A7"/>
<path d="M2.20616 4.70555C2.19982 4.76268 2.2513 4.8318 2.1709 4.87341V4.70555C2.18289 4.68439 2.19488 4.68509 2.20616 4.70555Z" fill="#A7A7A7"/>
<path d="M2.20616 4.41037H2.1709V4.28271C2.2245 4.31304 2.21251 4.36241 2.20616 4.41037Z" fill="#A7A7A7"/>
<path d="M2.20616 4.70588H2.1709V4.57963C2.18311 4.57893 2.19536 4.57893 2.20758 4.57963C2.20687 4.62054 2.20687 4.66285 2.20616 4.70588Z" fill="#A7A7A7"/>
<path d="M5.90475 3.36927C6.5233 3.36927 7.14255 3.36927 7.7618 3.36927C8.19555 3.36927 8.41278 3.58086 8.4149 4.01109C8.41924 5.3693 8.63336 6.71869 9.04967 8.01153C9.09317 8.1297 9.10441 8.25734 9.08222 8.3813C9.06003 8.50526 9.00521 8.62107 8.92342 8.71682C8.23787 9.60761 7.56713 10.5104 6.88582 11.4054C6.70103 11.648 6.66224 11.8949 6.80259 12.1699C7.74839 14.0221 8.93752 15.6858 10.5407 17.0323C11.5433 17.8605 12.6355 18.5737 13.797 19.1587C14.0721 19.2998 14.3175 19.2497 14.5594 19.0649C15.4587 18.378 16.365 17.7009 17.2628 17.0125C17.3454 16.9418 17.4452 16.8942 17.5521 16.8745C17.659 16.8548 17.7692 16.8637 17.8715 16.9004C19.1913 17.3253 20.568 17.5469 21.9545 17.5577C22.3938 17.5577 22.5892 17.7742 22.5892 18.2164C22.5892 19.454 22.5892 20.692 22.5892 21.9305C22.5892 22.3869 22.3649 22.5879 21.91 22.5822C20.3554 22.5722 18.8082 22.366 17.3051 21.9686C13.4585 20.9342 10.2557 18.8888 7.69691 15.8325C5.78704 13.5594 4.45607 10.8575 3.81778 7.95792C3.52939 6.64589 3.37975 5.30717 3.37134 3.96384C3.3671 3.59497 3.5928 3.37068 3.98141 3.36786C4.62182 3.36575 5.26223 3.36927 5.90475 3.36927Z" fill="white"/>
</svg>
