<svg width="30" height="30" viewBox="0 0 30 30" fill="none" xmlns="http://www.w3.org/2000/svg">
<path d="M11.2576 2.2251C11.5605 2.29167 11.8674 2.34159 12.1656 2.4248C13.2629 2.72707 14.2337 3.37468 14.9342 4.27173C15.6348 5.16877 16.0278 6.26757 16.0552 7.40542C16.0698 8.06178 16.0758 8.71948 16.0552 9.37584C16.0458 9.64211 16.1344 9.6927 16.374 9.67939C16.7224 9.64928 17.0734 9.67172 17.4151 9.74596C18.4909 10.0122 19.2278 10.9002 19.2491 12.0093C19.2704 13.0817 19.2591 14.1548 19.2557 15.2272C19.2557 15.7231 18.9229 16.0639 18.4569 16.0626C17.9909 16.0613 17.6628 15.7144 17.6581 15.2225C17.6521 14.224 17.6581 13.2255 17.6581 12.2269C17.6581 11.5666 17.3612 11.271 16.6982 11.271H6.56986C5.95544 11.271 5.34036 11.271 4.72527 11.271C4.13947 11.271 3.82194 11.5959 3.82194 12.1863C3.82194 15.13 3.82194 18.0736 3.82194 21.0173C3.82194 21.6031 4.1428 21.9239 4.73392 21.9239C7.83599 21.9239 10.9381 21.9239 14.0401 21.9239C14.2398 21.9239 14.4395 21.9239 14.6173 22.0377C14.7515 22.1225 14.8582 22.2443 14.9246 22.3884C14.991 22.5325 15.0142 22.6928 14.9914 22.8499C14.9642 23.0107 14.888 23.1593 14.7731 23.2751C14.6582 23.391 14.5103 23.4684 14.3497 23.4969C14.2348 23.5155 14.1185 23.5238 14.0022 23.5215H4.84575C3.44783 23.5215 2.61506 22.8738 2.25892 21.5205C2.25493 21.5072 2.23629 21.4985 2.2243 21.4879V11.7064C2.36876 10.6007 3.03577 9.96563 4.07423 9.68139C4.39813 9.60385 4.7315 9.57336 5.0641 9.59085C5.33569 9.59618 5.34901 9.57887 5.34968 9.31326C5.34968 8.70683 5.34968 8.10039 5.34968 7.49329C5.34968 5.09019 7.08976 2.88678 9.42497 2.32362C9.66728 2.26504 9.91757 2.27968 10.1572 2.2251H11.2576Z" fill="#222222"/>
<path d="M27.7764 20.7916C27.5807 21.2416 27.2439 21.4193 26.7506 21.3967C26.1515 21.3694 25.5524 21.3907 24.9533 21.39C24.4207 21.39 24.0566 21.0719 24.0466 20.6045C24.0366 20.1372 24.3927 19.8097 24.9266 19.7931C24.9506 19.7931 24.9746 19.7878 25.0325 19.7811C24.5831 19.3294 24.0193 19.0084 23.4015 18.8525C21.4884 18.3572 19.5925 19.3757 18.9355 21.2443C18.7731 21.7049 18.4762 21.9446 18.0941 21.9226C17.9708 21.9179 17.8504 21.8845 17.7424 21.8249C17.6343 21.7654 17.5417 21.6815 17.4719 21.5799C17.402 21.4782 17.3569 21.3616 17.3401 21.2395C17.3233 21.1173 17.3353 20.9929 17.3751 20.8761C18.0708 18.8125 19.4927 17.5537 21.6461 17.2042C23.3596 16.9267 24.8614 17.4419 26.1428 18.6155C26.2094 18.5929 26.1754 18.5336 26.1774 18.4917C26.1954 18.0636 26.4284 17.7674 26.8172 17.6849C27.1913 17.605 27.5248 17.7794 27.7132 18.1508C27.7305 18.1841 27.7192 18.2374 27.7757 18.2447L27.7764 20.7916Z" fill="#222222"/>
<path d="M21.8873 27.7745C21.5764 27.7026 21.2602 27.646 20.9553 27.5568C20.2031 27.339 19.5096 26.9544 18.9264 26.4318C18.8724 26.3839 18.8172 26.3366 18.7486 26.2767C18.734 26.3952 18.7273 26.493 18.7087 26.5882C18.6754 26.7827 18.5698 26.9574 18.4129 27.0771C18.256 27.1968 18.0596 27.2526 17.8633 27.2333C17.6702 27.2224 17.4884 27.139 17.3542 26.9997C17.22 26.8605 17.1434 26.6757 17.1397 26.4824C17.1286 25.7506 17.1286 25.0183 17.1397 24.2856C17.1463 23.8416 17.4725 23.5268 17.9252 23.5208C18.6315 23.5121 19.3384 23.5134 20.0454 23.5208C20.5 23.5254 20.8329 23.8436 20.8502 24.2697C20.8688 24.707 20.5786 25.0465 20.1326 25.1077C20.06 25.1177 19.9868 25.1197 19.8736 25.1284C20.4541 25.6802 21.1071 26.0164 21.864 26.1269C23.7379 26.3932 25.3448 25.4093 25.9859 23.6213C26.139 23.1939 26.4252 22.9722 26.806 22.9862C26.9818 22.9932 27.1503 23.058 27.2855 23.1705C27.4206 23.2831 27.5149 23.4371 27.5536 23.6086C27.5837 23.7384 27.5793 23.8738 27.5409 24.0014C27.0164 25.9465 25.0926 27.5608 23.0922 27.7332C22.9957 27.7825 22.8818 27.7139 22.7873 27.7765H22.338C22.2907 27.7561 22.2397 27.7455 22.1882 27.7455C22.1367 27.7455 22.0857 27.7561 22.0384 27.7765L21.8873 27.7745Z" fill="#222222"/>
<path d="M22.0369 27.7741C22.1367 27.6883 22.2366 27.7036 22.3365 27.7741H22.0369Z" fill="#222222"/>
<path d="M22.7885 27.7743C22.8816 27.7031 22.9882 27.7171 23.0933 27.7311C23.086 27.7442 23.0839 27.7597 23.0873 27.7743H22.7885Z" fill="#222222"/>
<path d="M10.7323 9.67456C9.56872 9.67456 8.40244 9.6699 7.24083 9.67922C7.05577 9.67922 7.00318 9.63928 7.0105 9.45023C7.04246 8.63677 6.95525 7.81997 7.05976 7.00918C7.2821 5.29305 8.77988 3.91909 10.5093 3.82855C12.3113 3.73403 13.9223 4.91029 14.353 6.62774C14.4635 7.06909 14.4648 7.51576 14.4635 7.96443C14.4635 8.46369 14.4555 8.96295 14.4681 9.46088C14.4721 9.63662 14.4242 9.68055 14.2491 9.67922C13.0769 9.6679 11.9046 9.67456 10.7323 9.67456Z" fill="white"/>
</svg>
