<svg width="26" height="26" viewBox="0 0 26 26" fill="none" xmlns="http://www.w3.org/2000/svg">
<path d="M23.055 24.9084H3.00385C2.92239 24.817 2.93927 24.7041 2.94567 24.5982C2.9907 23.3513 3.26137 22.1229 3.74457 20.9726C4.20102 19.9038 4.84104 18.9231 5.63564 18.0749C7.24199 16.3328 9.21491 15.2831 11.5544 14.9258C13.723 14.5959 15.7881 14.9706 17.7315 15.9813C19.6085 16.9946 21.1283 18.5609 22.0845 20.4675C22.6495 21.5982 22.9856 22.8293 23.0737 24.0903C23.0865 24.2829 23.126 24.4731 23.1156 24.6675C23.1121 24.7524 23.1196 24.8397 23.055 24.9084Z" fill="white"/>
<path d="M23.0549 24.9083C23.0345 22.5279 22.2985 20.3959 20.7775 18.5659C19.09 16.5294 16.9371 15.3046 14.3001 14.9682C11.8609 14.6569 9.58697 15.1608 7.55043 16.5282C5.01989 18.2255 3.51052 20.5978 3.0939 23.6387C3.03514 24.0594 3.00501 24.4835 3.00371 24.9083H1.14813C1.33899 19.4161 4.11974 15.7573 9.07435 13.6369C5.49818 11.1046 5.25903 6.13549 8.14336 3.17145C10.7618 0.483215 15.2968 0.483215 17.9141 3.17145C20.8054 6.13898 20.5523 11.1169 16.9418 13.6666C17.2467 13.7929 17.5493 13.904 17.8402 14.0408C21.5641 15.7928 23.8649 18.6806 24.7062 22.717C24.7865 23.1016 24.8121 23.4973 24.8628 23.8883C24.8674 23.9244 24.8575 23.9674 24.9093 23.9791V24.1647C24.9021 24.1701 24.8962 24.1771 24.8922 24.1852C24.8881 24.1933 24.886 24.2022 24.886 24.2112C24.886 24.2203 24.8881 24.2292 24.8922 24.2373C24.8962 24.2453 24.9021 24.2524 24.9093 24.2578V24.4905C24.8906 24.5346 24.881 24.582 24.881 24.6299C24.881 24.6778 24.8906 24.7252 24.9093 24.7692C24.9093 24.846 24.939 24.9176 24.7929 24.9141C24.2151 24.9002 23.635 24.9083 23.0549 24.9083Z" fill="#A7A7A7"/>
<path d="M24.9111 24.7694C24.8769 24.7311 24.858 24.6815 24.858 24.6301C24.858 24.5787 24.8769 24.5291 24.9111 24.4907V24.7694Z" fill="#A7A7A7"/>
<path d="M24.9111 24.2581C24.8529 24.2267 24.8419 24.1959 24.9111 24.165V24.2581Z" fill="#A7A7A7"/>
<path d="M18.0416 8.01127C18.0358 10.7728 15.7723 13.0305 13.0177 13.0194C10.255 13.0078 8.00143 10.7397 8.01773 7.98625C8.03402 5.23285 10.2812 2.98916 13.0305 2.98975C15.7799 2.99033 18.0474 5.25438 18.0416 8.01127Z" fill="white"/>
</svg>
