<svg width="26" height="26" viewBox="0 0 26 26" fill="none" xmlns="http://www.w3.org/2000/svg">
<path d="M25.996 5.5379V20.4121C25.9418 20.5082 25.9824 20.6152 25.9696 20.714C25.9553 21.4758 25.522 21.991 24.9424 22.3986C24.5284 22.6859 24.0345 22.8356 23.5307 22.8265C16.5103 22.8252 9.48845 22.8223 2.46529 22.8177C1.4043 22.8177 0.637164 22.2971 0.158466 21.3485C0.0562268 21.1453 0.0629956 20.9233 0.00408936 20.714V5.58868C0.058256 5.49253 0.017632 5.38555 0.0304966 5.28738C0.0447153 4.52566 0.478048 4.0104 1.05763 3.60212C1.47147 3.31505 1.96509 3.16535 2.46867 3.1742C9.48913 3.1742 16.5096 3.176 23.53 3.17961C24.5795 3.17961 25.3466 3.68743 25.8267 4.62316C25.9187 4.81325 25.9675 5.02135 25.9696 5.23253C25.9818 5.33545 25.9418 5.44107 25.996 5.5379Z" fill="#A7A7A7"/>
<path d="M25.9499 5.28125C25.9565 5.28585 25.9642 5.28881 25.9722 5.28987C25.9802 5.29093 25.9883 5.29006 25.9959 5.28734V5.54057C25.9681 5.50416 25.9494 5.46162 25.9414 5.4165C25.9334 5.37139 25.9363 5.32501 25.9499 5.28125Z" fill="#A7A7A7"/>
<path d="M0.00408936 5.33483L0.0460682 5.32129C0.0629953 5.4154 0.0772144 5.50884 0.00408936 5.59212V5.33483Z" fill="#A7A7A7"/>
<path d="M25.996 20.666L25.954 20.6789C25.937 20.5848 25.9235 20.492 25.996 20.4121V20.666Z" fill="#A7A7A7"/>
<path d="M24.371 6.6582V6.95003C24.371 11.3493 24.371 15.748 24.371 20.1464C24.371 20.8235 24.0717 21.1221 23.3993 21.1221H2.58919C1.93648 21.1221 1.62909 20.8147 1.62909 20.1606C1.62909 15.7537 1.62909 11.3466 1.62909 6.93919V6.71102C1.72117 6.69003 1.75367 6.76518 1.79972 6.80513C5.32055 9.85562 8.84138 12.9068 12.3622 15.9586C12.8186 16.354 13.1747 16.3547 13.6412 15.9518C17.1445 12.9185 20.647 9.88405 24.1489 6.84846L24.371 6.6582Z" fill="white"/>
<path d="M23.8624 4.9489L21.062 7.37624C18.4408 9.64808 15.8212 11.9204 13.2031 14.1931C13.0589 14.3184 12.9749 14.3495 12.8117 14.208C9.30175 11.1562 5.78836 8.1093 2.27159 5.06739C2.23435 5.03556 2.19779 4.99968 2.15717 4.96583C2.37722 4.85681 23.5361 4.83718 23.8624 4.9489Z" fill="white"/>
</svg>
