<svg width="26" height="26" viewBox="0 0 26 26" fill="none" xmlns="http://www.w3.org/2000/svg">
<path d="M9.90095 23.3952C9.98965 22.8759 10.0844 22.318 10.1806 21.7607C10.2368 21.4357 10.291 21.1107 10.3539 20.7878C10.3677 20.7312 10.3651 20.6718 10.3464 20.6167C10.3277 20.5615 10.2937 20.5128 10.2483 20.4763C9.64434 19.8967 9.04715 19.309 8.4459 18.7261C8.29965 18.5839 8.18387 18.4363 8.26376 18.2155C8.34366 17.9948 8.50955 17.9447 8.71741 17.9163C9.53804 17.8039 10.356 17.6766 11.1759 17.5621C11.242 17.557 11.3052 17.5334 11.3585 17.494C11.4118 17.4546 11.4529 17.401 11.4772 17.3394C11.8361 16.5946 12.2064 15.8566 12.5687 15.1138C12.6587 14.929 12.7637 14.7753 12.9952 14.7753C13.2268 14.7753 13.3338 14.9202 13.4265 15.1064C13.7854 15.841 14.1571 16.5695 14.5099 17.3082C14.538 17.3812 14.5867 17.4445 14.65 17.4905C14.7133 17.5366 14.7885 17.5633 14.8667 17.5676C15.6873 17.6793 16.5052 17.8052 17.3252 17.919C17.5283 17.9474 17.6779 18.0293 17.7429 18.2311C17.8079 18.4329 17.7118 18.5696 17.5777 18.7051C16.9771 19.2887 16.3813 19.8778 15.7746 20.4546C15.7207 20.4995 15.6806 20.5588 15.6592 20.6256C15.6377 20.6924 15.6357 20.7639 15.6535 20.8318C15.8017 21.6551 15.9419 22.4791 16.0854 23.3031C16.1179 23.4893 16.0969 23.6606 15.9351 23.7825C15.7733 23.9044 15.5925 23.8807 15.4138 23.7825C14.6757 23.3912 13.9343 23.0079 13.2031 22.6145C13.1439 22.5769 13.0752 22.5569 13.005 22.5569C12.9349 22.5569 12.8662 22.5769 12.807 22.6145C12.0649 23.0149 11.3201 23.4088 10.5726 23.7961C10.2239 23.9687 9.90095 23.79 9.90095 23.3952Z" fill="#222222"/>
<path d="M13.4063 8.22041C14.1741 8.26104 14.9514 8.26036 15.6989 8.44927C17.1601 8.8176 17.9956 9.82036 18.3741 11.2402C18.5454 11.8807 18.5291 12.547 18.6165 13.1997C18.7519 14.2153 18.8731 15.2309 19.0004 16.2425C19.0403 16.5634 18.9035 16.7842 18.6469 16.8092C18.3903 16.8343 18.2177 16.6576 18.173 16.3353C17.9563 14.7956 17.785 13.2511 17.6157 11.7054C17.4593 10.2781 16.4647 9.35453 15.0354 9.18458C13.5979 9.02217 12.1463 9.02808 10.7102 9.20219C9.53948 9.3376 8.63761 10.1623 8.33157 11.3831C8.18735 11.9613 8.19615 12.5571 8.12844 13.1435C8.00047 14.2268 7.88266 15.3102 7.75198 16.3935C7.71474 16.7029 7.52448 16.8539 7.26245 16.8167C7.01125 16.7815 6.88058 16.5722 6.91985 16.2635C7.10943 14.7883 7.27215 13.3101 7.40802 11.8286C7.59828 9.77094 8.8888 8.50547 10.9465 8.33755C11.5105 8.29151 12.0765 8.26104 12.6392 8.2238C12.7129 8.17456 12.8015 8.15275 12.8897 8.16218C12.9621 8.16218 13.0346 8.16218 13.1077 8.16218C13.2106 8.17437 13.3075 8.20552 13.4063 8.22041Z" fill="#222222"/>
<path d="M2.39014 23.3851C2.48832 22.8102 2.58244 22.2009 2.70093 21.5955C2.73817 21.4026 2.68129 21.2875 2.54655 21.1609C2.13353 20.7736 1.73405 20.3714 1.3278 19.978C1.18426 19.8426 1.09217 19.6902 1.16733 19.483C1.24249 19.2759 1.39889 19.2163 1.59863 19.1892C2.19311 19.11 2.78556 19.0159 3.37936 18.9366C3.50936 18.919 3.56488 18.8507 3.61567 18.7443C3.87296 18.2128 4.13973 17.6861 4.39634 17.1546C4.48301 16.9745 4.59946 16.8363 4.81004 16.8336C5.03415 16.8336 5.15332 16.9731 5.24405 17.1627C5.49593 17.6874 5.76134 18.2054 6.01254 18.7301C6.03701 18.7916 6.07898 18.8446 6.13325 18.8825C6.18753 18.9204 6.25173 18.9416 6.3179 18.9434C6.91238 19.0179 7.50551 19.1107 8.09863 19.196C8.28077 19.2224 8.4216 19.3084 8.47645 19.4885C8.50228 19.5698 8.50353 19.6569 8.48004 19.7389C8.45655 19.821 8.40937 19.8942 8.34441 19.9496C7.91311 20.3673 7.48858 20.7925 7.05051 21.2035C6.92931 21.3173 6.90832 21.4202 6.93879 21.5793C7.04915 22.1602 7.13853 22.7446 7.24212 23.3268C7.2753 23.5117 7.234 23.6654 7.08843 23.7791C6.94285 23.8929 6.77494 23.8915 6.61447 23.8062C6.08431 23.5279 5.5528 23.2524 5.02738 22.9646C4.96844 22.9266 4.8998 22.9064 4.82968 22.9064C4.75955 22.9064 4.69091 22.9266 4.63196 22.9646C4.10655 23.2517 3.5773 23.5313 3.04421 23.8035C2.70228 23.9735 2.38066 23.7791 2.39014 23.3851Z" fill="#222222"/>
<path d="M24.8645 19.611C24.8586 19.6825 24.8386 19.7522 24.8056 19.8158C24.7726 19.8795 24.7273 19.936 24.6722 19.9821C24.2457 20.3931 23.8259 20.8102 23.398 21.2191C23.3523 21.254 23.3179 21.3016 23.2992 21.3559C23.2804 21.4102 23.278 21.4688 23.2923 21.5245C23.4013 22.0966 23.4955 22.6755 23.5923 23.2463C23.6268 23.446 23.6363 23.6383 23.4569 23.7785C23.2774 23.9186 23.0797 23.8645 22.8901 23.7629C22.3925 23.4921 21.8887 23.2395 21.3945 22.966C21.3321 22.9262 21.2594 22.9055 21.1854 22.9066C21.1113 22.9077 21.0393 22.9305 20.9781 22.9721C20.4682 23.2524 19.9482 23.5137 19.4343 23.7846C19.265 23.8746 19.0958 23.9085 18.9346 23.7907C18.7735 23.6729 18.7315 23.5016 18.7714 23.2964C18.8825 22.7073 18.9746 22.1142 19.0822 21.5251C19.0949 21.4686 19.0912 21.4097 19.0717 21.3551C19.0521 21.3006 19.0175 21.2527 18.9719 21.2171C18.5446 20.8108 18.1255 20.389 17.6976 19.98C17.55 19.8392 17.4674 19.6821 17.5317 19.4837C17.596 19.2854 17.7599 19.2129 17.961 19.1865C18.5555 19.108 19.1479 19.0132 19.7424 18.9346C19.7961 18.9291 19.8472 18.9083 19.8895 18.8747C19.9319 18.8411 19.9638 18.7961 19.9814 18.745C20.2394 18.2142 20.5055 17.6874 20.7621 17.1559C20.8487 16.9758 20.9605 16.837 21.1737 16.8316C21.3999 16.8255 21.5197 16.967 21.6105 17.1559C21.8678 17.6874 22.1352 18.2142 22.3898 18.7464C22.411 18.8003 22.4473 18.847 22.4944 18.8807C22.5415 18.9145 22.5973 18.9339 22.6552 18.9367C23.2578 19.0159 23.8597 19.1046 24.461 19.194C24.702 19.2325 24.8598 19.3984 24.8645 19.611Z" fill="#222222"/>
<path d="M12.6412 8.13722C11.392 7.9341 10.2829 6.70993 10.1055 5.34425C9.9403 4.07946 10.4339 3.05233 11.4766 2.48899C12.9824 1.67649 14.9379 2.25743 15.5919 3.73753C16.0869 4.85743 15.816 5.9042 15.162 6.8704C14.7049 7.54748 14.0861 8.00587 13.258 8.13722C13.233 8.15407 13.205 8.16581 13.1754 8.17175C13 8.16634 12.8152 8.21305 12.6412 8.13722Z" fill="#222222"/>
<path d="M15.5356 12.4665C15.5316 12.3906 15.5234 12.3141 15.5234 12.2383C15.5234 11.9857 15.6798 11.8043 15.908 11.7874C16.1362 11.7704 16.3312 11.9485 16.3515 12.2085C16.4012 12.8405 16.4481 13.4724 16.4923 14.1043C16.5443 14.8266 16.595 15.5517 16.6447 16.2798C16.665 16.5804 16.5336 16.7761 16.296 16.8093C16.0252 16.8472 15.8308 16.6739 15.8044 16.3611C15.7658 15.8973 15.7367 15.4335 15.7056 14.9697L15.5349 12.4644L15.5356 12.4665Z" fill="#222222"/>
<path d="M10.3594 12.3812C10.2691 13.6785 10.1788 14.9756 10.0885 16.2724C10.0844 16.3406 10.076 16.4084 10.0635 16.4755C10.0468 16.5765 9.99262 16.6675 9.91178 16.7302C9.83094 16.793 9.72939 16.8229 9.62742 16.8141C9.52481 16.8107 9.42759 16.7673 9.3566 16.6931C9.2856 16.619 9.24646 16.52 9.24758 16.4173C9.24758 16.139 9.27669 15.8607 9.29633 15.5831C9.37623 14.4544 9.45409 13.3257 9.54008 12.1977C9.55972 11.9425 9.74727 11.78 9.96867 11.7915C10.205 11.803 10.3648 11.9905 10.3654 12.2573V12.3839L10.3594 12.3812Z" fill="#222222"/>
<path d="M12.6411 8.13721H13.2031C13.2227 8.22658 13.132 8.1846 13.1049 8.21914H12.9018C12.8246 8.17309 12.7291 8.23403 12.6547 8.17648C12.6461 8.16513 12.6414 8.15139 12.6411 8.13721Z" fill="white"/>
<path d="M13.1029 8.21974L13.2011 8.13782H13.258L13.4076 8.2211L13.1029 8.21974Z" fill="white"/>
<path d="M12.6493 8.17709C12.7319 8.18725 12.8233 8.15069 12.8964 8.21975H12.6418C12.6439 8.20553 12.6459 8.19267 12.6493 8.17709Z" fill="white"/>
<path d="M15.1227 22.6823C14.5011 22.356 13.9242 22.0628 13.3568 21.7506C13.1104 21.6152 12.8978 21.6051 12.6466 21.7473C12.1334 22.0384 11.6052 22.3031 11.0818 22.576C11.025 22.6058 10.9728 22.6586 10.8787 22.6437C10.9857 22.0215 11.0818 21.3972 11.2037 20.7777C11.2647 20.4683 11.2085 20.236 10.9701 20.0078C10.5111 19.563 10.0899 19.0796 9.66809 18.63C10.27 18.5399 10.9342 18.4329 11.6012 18.3463C11.7061 18.3387 11.807 18.3021 11.8924 18.2407C11.9779 18.1793 12.0446 18.0953 12.0853 17.9983C12.3764 17.3936 12.6764 16.793 12.9946 16.1458C13.1436 16.445 13.2742 16.7043 13.4009 16.965C13.576 17.3207 13.7502 17.6766 13.9236 18.0328C13.9609 18.1179 14.0205 18.1914 14.096 18.2456C14.1715 18.2998 14.2602 18.3327 14.3528 18.3409C15.0299 18.4329 15.707 18.5372 16.4626 18.6489C16.2521 18.8419 16.0787 18.9956 15.9122 19.1554C15.6136 19.4418 15.3326 19.7492 15.017 20.0173C14.7598 20.236 14.7293 20.4811 14.7889 20.7872C14.9101 21.3959 15.0069 22.01 15.1227 22.6823Z" fill="white"/>
<path d="M4.8161 18.198C5.01922 18.6144 5.21152 18.9888 5.39094 19.368C5.42925 19.4663 5.49447 19.5519 5.57912 19.6148C5.66378 19.6778 5.76446 19.7157 5.86964 19.7241C6.29282 19.7736 6.71396 19.8453 7.10329 19.9029C6.825 20.2008 6.55756 20.517 6.25761 20.798C6.05042 20.993 6.0098 21.2002 6.06058 21.4602C6.13574 21.8482 6.19599 22.2382 6.27454 22.6789C5.88386 22.4758 5.52974 22.3092 5.1912 22.1088C4.92714 21.9497 4.70235 21.9545 4.43896 22.1129C4.10042 22.316 3.74089 22.4819 3.35563 22.6803C3.4335 22.2199 3.49579 21.796 3.57975 21.3755C3.60232 21.2815 3.59929 21.183 3.57095 21.0905C3.54261 20.998 3.49 20.9148 3.4186 20.8495C3.11662 20.5434 2.82412 20.2272 2.51672 19.9015C2.85527 19.8521 3.21141 19.7824 3.57298 19.7519C3.93454 19.7214 4.16745 19.5887 4.30423 19.2407C4.441 18.8927 4.63058 18.5765 4.8161 18.198Z" fill="white"/>
<path d="M19.7282 22.6782C19.7999 22.2544 19.8521 21.8712 19.9313 21.4933C19.9943 21.2015 19.9387 20.9788 19.7119 20.7668C19.4221 20.496 19.1702 20.1913 18.8994 19.9008C19.2319 19.8534 19.6009 19.7844 19.9726 19.7526C20.3111 19.7234 20.5319 19.5853 20.6646 19.2617C20.8074 18.9123 20.993 18.5812 21.1805 18.2007C21.3748 18.5927 21.5678 18.9407 21.7222 19.3057C21.8434 19.5921 22.0424 19.7119 22.3383 19.7444C22.7243 19.7851 23.1075 19.8487 23.4833 19.9015C23.2057 20.1947 22.9416 20.4967 22.6498 20.7743C22.4467 20.9672 22.3566 21.1582 22.425 21.4466C22.5177 21.8387 22.5651 22.2422 22.6383 22.6762C22.2632 22.4819 21.9057 22.316 21.5692 22.1156C21.2983 21.9538 21.0627 21.9571 20.7919 22.1196C20.4628 22.318 20.1094 22.4792 19.7282 22.6782Z" fill="white"/>
<path d="M15.0021 4.86488C14.9446 5.83582 14.539 6.5867 13.7204 7.08842C13.1991 7.408 12.6628 7.39378 12.1387 7.08165C11.3262 6.60024 10.7927 5.47764 10.92 4.54259C11.0419 3.67118 11.7772 3.05707 12.8009 2.97311C13.8389 2.8878 14.7299 3.4904 14.9466 4.43155C14.9736 4.57478 14.9921 4.71947 15.0021 4.86488Z" fill="white"/>
</svg>
