<svg width="14" height="24" viewBox="0 0 14 24" fill="none" xmlns="http://www.w3.org/2000/svg">
<path d="M4.125 18.6196C4.125 17.0196 4.12109 15.4164 4.125 13.8188C4.125 13.6188 4.08125 13.5539 3.87109 13.5571C3.01172 13.5696 2.15234 13.5625 1.29297 13.5618C0.645312 13.5618 0.511719 13.4344 0.511719 12.7993C0.511719 11.6763 0.511719 10.5542 0.511719 9.43285C0.511719 8.79379 0.642969 8.66879 1.29297 8.66879C2.16172 8.66879 3.03047 8.66332 3.89844 8.6727C4.0789 8.6727 4.12656 8.62738 4.125 8.44613C4.11719 7.50863 4.09765 6.57113 4.13203 5.63363C4.19453 3.93129 4.71953 2.41566 6.07266 1.28832C7.03594 0.485977 8.17656 0.107071 9.4125 0.0578525C10.5617 0.01254 11.7148 0.0383212 12.8664 0.0406649C13.2727 0.0406649 13.4367 0.206289 13.4383 0.610976C13.444 1.76254 13.444 2.9141 13.4383 4.06566C13.4383 4.48129 13.282 4.63676 12.8398 4.64691C12.05 4.66566 11.2594 4.66644 10.4695 4.67816C9.56953 4.69144 9.20078 5.03988 9.18281 5.93285C9.1664 6.75238 9.18281 7.57348 9.17344 8.39223C9.17344 8.58988 9.25156 8.60941 9.41484 8.60785C10.4586 8.60238 11.5031 8.60394 12.5469 8.60785C13.1719 8.60785 13.3211 8.75551 13.3219 9.38519C13.3219 10.5263 13.3219 11.668 13.3219 12.8102C13.3219 13.4032 13.1992 13.525 12.5977 13.5266C11.5539 13.5266 10.5094 13.5344 9.46562 13.5219C9.2375 13.5219 9.17422 13.5758 9.175 13.8094C9.18281 16.9026 9.18463 19.9961 9.18046 23.0899C9.18046 23.9016 9.08203 24 8.27656 24H4.88515C4.26719 24 4.12578 23.8586 4.125 23.2454C4.12448 21.7032 4.12448 20.1612 4.125 18.6196Z" fill="#002840"/>
</svg>
