<svg width="30" height="30" viewBox="0 0 30 30" fill="none" xmlns="http://www.w3.org/2000/svg">
<path d="M12.125 21.6196C12.125 20.0196 12.1211 18.4164 12.125 16.8188C12.125 16.6188 12.0812 16.5539 11.8711 16.5571C11.0117 16.5696 10.1523 16.5625 9.29297 16.5618C8.64531 16.5618 8.51172 16.4344 8.51172 15.7993C8.51172 14.6763 8.51172 13.5542 8.51172 12.4329C8.51172 11.7938 8.64297 11.6688 9.29297 11.6688C10.1617 11.6688 11.0305 11.6633 11.8984 11.6727C12.0789 11.6727 12.1266 11.6274 12.125 11.4461C12.1172 10.5086 12.0977 9.57113 12.132 8.63363C12.1945 6.93129 12.7195 5.41566 14.0727 4.28832C15.0359 3.48598 16.1766 3.10707 17.4125 3.05785C18.5617 3.01254 19.7148 3.03832 20.8664 3.04066C21.2727 3.04066 21.4367 3.20629 21.4383 3.61098C21.444 4.76254 21.444 5.9141 21.4383 7.06566C21.4383 7.48129 21.282 7.63676 20.8398 7.64691C20.05 7.66566 19.2594 7.66644 18.4695 7.67816C17.5695 7.69144 17.2008 8.03988 17.1828 8.93285C17.1664 9.75238 17.1828 10.5735 17.1734 11.3922C17.1734 11.5899 17.2516 11.6094 17.4148 11.6079C18.4586 11.6024 19.5031 11.6039 20.5469 11.6079C21.1719 11.6079 21.3211 11.7555 21.3219 12.3852C21.3219 13.5263 21.3219 14.668 21.3219 15.8102C21.3219 16.4032 21.1992 16.525 20.5977 16.5266C19.5539 16.5266 18.5094 16.5344 17.4656 16.5219C17.2375 16.5219 17.1742 16.5758 17.175 16.8094C17.1828 19.9026 17.1846 22.9961 17.1805 26.0899C17.1805 26.9016 17.082 27 16.2766 27H12.8852C12.2672 27 12.1258 26.8586 12.125 26.2454C12.1245 24.7032 12.1245 23.1612 12.125 21.6196Z" fill="white"/>
</svg>
