<svg width="30" height="30" viewBox="0 0 30 30" fill="none" xmlns="http://www.w3.org/2000/svg">
<g clip-path="url(#clip0_301_1744)">
<path d="M0.786434 14.9678C0.786434 11.3933 0.786434 7.81919 0.786434 4.24532C0.786434 2.59747 1.81306 1.278 3.37966 0.884448C3.66755 0.815115 3.96294 0.781851 4.25903 0.785423C7.68507 0.785423 11.1108 0.785423 14.5363 0.785423C15.0176 0.775356 15.4958 0.866 15.94 1.05154C16.3842 1.23708 16.7848 1.51342 17.116 1.86283C18.9994 3.79252 20.884 5.7208 22.7696 7.64767C23.473 8.36537 23.8039 9.22273 23.8022 10.2197C23.8022 11.6264 23.8022 13.033 23.7971 14.4388C23.7971 14.6521 23.8479 14.7774 24.051 14.8806C25.3609 15.5621 26.7358 16.1107 28.155 16.5183C28.8473 16.7189 29.1969 17.2005 29.2129 17.9139C29.2451 19.4103 29.1613 20.8872 28.6501 22.315C27.8977 24.4233 26.6129 26.1151 24.7696 27.3813C24.0561 27.8704 23.3308 28.341 22.6122 28.826C22.305 29.0357 21.9339 29.131 21.5636 29.0951C21.0998 29.0621 20.6512 29.2195 20.1815 29.2178C17.05 29.2026 13.9185 29.2102 10.792 29.2102C8.64794 29.2102 6.5013 29.2102 4.35212 29.2102C2.23624 29.2102 0.785586 27.7655 0.78474 25.6555C0.782483 22.0935 0.783049 18.5309 0.786434 14.9678Z" fill="#222222"/>
<path d="M22.43 13.9141C21.8257 13.6119 21.3146 13.7727 20.8008 14.1036C19.1172 15.1758 17.2834 15.9913 15.3596 16.5234C14.7451 16.6926 14.3516 17.1539 14.3262 17.7768C14.2543 19.5432 14.4032 21.2757 15.1167 22.9277C15.9084 24.7976 17.2397 26.3888 18.9405 27.498C19.1036 27.5959 19.2502 27.719 19.3747 27.8628H4.42047C2.96728 27.8628 2.13531 27.0359 2.13531 25.5853C2.13531 18.5216 2.13531 11.4582 2.13531 4.39512C2.13531 2.96478 2.96728 2.13281 4.39847 2.13281H14.4227C14.9999 2.13281 14.9999 2.13281 14.9999 2.69987C14.9999 3.82129 14.9999 4.94186 14.9999 6.06243C14.9999 8.11315 16.4565 9.57565 18.508 9.5875C19.7031 9.59427 20.8981 9.59596 22.0932 9.58327C22.3395 9.58327 22.4317 9.64844 22.4317 9.89642C22.4275 11.2184 22.43 12.5396 22.43 13.9141Z" fill="white"/>
<path d="M27.8645 18.9779C27.7672 22.1196 26.4579 24.6028 23.8452 26.3759C23.2155 26.7991 22.5807 27.2222 21.9477 27.6403C21.863 27.6945 21.8029 27.7834 21.6751 27.6945C20.5038 26.8854 19.2317 26.2134 18.2254 25.1808C16.5327 23.4424 15.6863 21.357 15.6863 18.9246C15.6863 18.6284 15.699 18.3321 15.6931 18.0368C15.6931 17.8895 15.7287 17.8226 15.8878 17.7769C17.9089 17.2031 19.8342 16.3341 21.6015 15.1981C21.6495 15.1596 21.7092 15.1387 21.7708 15.1387C21.8323 15.1387 21.892 15.1596 21.9401 15.1981C23.7078 16.3333 25.6342 17.2001 27.6563 17.7702C27.8256 17.8176 27.8738 17.8912 27.8679 18.0554C27.8569 18.3634 27.8645 18.6707 27.8645 18.9779Z" fill="white"/>
<path d="M21.4324 8.22233C20.344 8.22233 19.3249 8.22233 18.3051 8.22233C18.1786 8.2221 18.0525 8.20733 17.9293 8.17832C17.482 8.0798 17.0819 7.83123 16.7953 7.47389C16.5088 7.11655 16.3532 6.67195 16.3542 6.21393C16.3339 5.18138 16.3542 4.14798 16.3542 3.02148C18.0596 4.76921 19.7193 6.46615 21.4324 8.22233Z" fill="white"/>
<path d="M10.9569 14.3179H16.0934C16.199 14.3141 16.3048 14.3175 16.4099 14.3281C16.784 14.378 17.0345 14.6582 17.0286 15.0102C17.0251 15.1753 16.9615 15.3335 16.8495 15.4549C16.7376 15.5763 16.5852 15.6527 16.4209 15.6696C16.3159 15.6814 16.2101 15.6857 16.1044 15.6823H5.70524C5.16526 15.6823 4.85296 15.4283 4.84958 15.0052C4.84619 14.582 5.15934 14.3188 5.69593 14.3188C6.98577 14.3188 8.27534 14.3188 9.56462 14.3188L10.9569 14.3179Z" fill="#222222"/>
<path d="M10.2758 10.2606H14.775C14.9229 10.252 15.0713 10.2675 15.2143 10.3063C15.3511 10.3504 15.4699 10.4376 15.5529 10.555C15.6359 10.6723 15.6787 10.8135 15.6747 10.9572C15.6737 11.0958 15.6288 11.2305 15.5466 11.3421C15.4644 11.4537 15.3489 11.5364 15.2168 11.5784C15.0745 11.6195 14.9262 11.6355 14.7784 11.6258C11.7676 11.6258 8.75742 11.6258 5.74778 11.6258C5.62148 11.629 5.49519 11.6185 5.37115 11.5945C5.22343 11.5618 5.09127 11.4797 4.99653 11.3617C4.90179 11.2438 4.85016 11.097 4.85016 10.9457C4.85016 10.7944 4.90179 10.6477 4.99653 10.5297C5.09127 10.4117 5.22343 10.3296 5.37115 10.297C5.49479 10.272 5.62084 10.2609 5.74694 10.264C7.25627 10.2583 8.76588 10.2572 10.2758 10.2606Z" fill="#222222"/>
<path d="M8.92824 18.3783C9.98449 18.3783 11.041 18.3783 12.0978 18.3783C12.2242 18.3764 12.3503 18.3894 12.4736 18.4172C12.6144 18.4546 12.7389 18.5373 12.8281 18.6525C12.9172 18.7676 12.9659 18.9089 12.9668 19.0546C12.9677 19.2002 12.9206 19.3421 12.8328 19.4583C12.7451 19.5746 12.6215 19.6587 12.4812 19.6978C12.3478 19.7285 12.211 19.7424 12.0741 19.7392C9.96108 19.7392 7.84801 19.7392 5.73495 19.7392C5.69263 19.7392 5.65031 19.7392 5.608 19.7392C5.14758 19.7231 4.8522 19.4591 4.84628 19.0621C4.84035 18.6652 5.13742 18.3851 5.59699 18.3791C6.0828 18.3698 6.56861 18.3791 7.05441 18.3791L8.92824 18.3783Z" fill="#222222"/>
<path d="M8.93159 22.4405C10.0319 22.4405 11.1321 22.4345 12.2324 22.4405C12.6733 22.4405 12.9628 22.7172 12.9721 23.1032C12.9814 23.5018 12.6869 23.7802 12.2332 23.8006C12.1486 23.8006 12.0639 23.8006 11.9793 23.8006H6.58719C6.22749 23.8006 5.86779 23.8141 5.50978 23.7929C5.42191 23.7921 5.33508 23.7738 5.25428 23.7393C5.17348 23.7047 5.1003 23.6545 5.03896 23.5916C4.97761 23.5287 4.9293 23.4543 4.89681 23.3726C4.86432 23.291 4.84828 23.2037 4.84963 23.1159C4.84963 22.7519 5.11538 22.4769 5.50893 22.4388C5.59344 22.4331 5.67819 22.4317 5.76284 22.4345L8.93159 22.4405Z" fill="#222222"/>
<path d="M8.20797 7.5599C7.34215 7.5599 6.47633 7.56751 5.61135 7.5599C5.02737 7.55313 4.68037 7.05632 4.91904 6.5832C4.97666 6.46311 5.06841 6.36269 5.18283 6.29449C5.29724 6.22629 5.42922 6.19336 5.56226 6.1998C7.33566 6.19642 9.10877 6.19642 10.8816 6.1998C11.3158 6.1998 11.6103 6.48926 11.6162 6.87012C11.6222 7.25098 11.3183 7.55397 10.8672 7.5582C9.98108 7.56667 9.0941 7.5599 8.20797 7.5599Z" fill="#222222"/>
<path d="M24.4545 19.6592C24.4671 19.7707 24.4533 19.8836 24.4144 19.9888C24.3754 20.0941 24.3124 20.1887 24.2302 20.2652C23.3568 21.1386 22.4867 22.0154 21.6065 22.8829C21.273 23.213 20.91 23.2096 20.5739 22.8829C20.1423 22.4643 19.7169 22.0388 19.2977 21.6066C18.993 21.2926 18.9896 20.8982 19.2706 20.6198C19.5516 20.3413 19.9476 20.3608 20.2591 20.6587C20.48 20.8703 20.7026 21.0819 20.9057 21.3104C21.042 21.4619 21.1232 21.467 21.2713 21.3155C21.9343 20.635 22.6055 19.9627 23.2848 19.2986C23.6572 18.9338 24.1862 19.0159 24.3927 19.456C24.4206 19.5213 24.4413 19.5894 24.4545 19.6592Z" fill="#222222"/>
</g>
<defs>
<clipPath id="clip0_301_1744">
<rect width="30" height="30" fill="white"/>
</clipPath>
</defs>
</svg>
