<svg width="30" height="30" viewBox="0 0 30 30" fill="none" xmlns="http://www.w3.org/2000/svg">
<path d="M14.9891 2.60548C16.6198 2.60291 18.2349 2.9224 19.7417 3.54561C21.2486 4.16882 22.6176 5.08348 23.77 6.23709C24.9225 7.39071 25.8358 8.76057 26.4575 10.268C27.0793 11.7755 27.3971 13.3909 27.393 15.0216C27.385 21.8495 21.8033 27.4197 14.9942 27.3944C8.08335 27.3692 2.59033 21.8336 2.60547 14.9084C2.61989 8.13673 8.19369 2.59611 14.9891 2.60548Z" fill="#222222"/>
<path d="M14.9999 25.6609C9.19169 25.7071 4.38087 20.9489 4.33327 15.1126C4.3169 13.7076 4.57864 12.3133 5.10342 11.0099C5.6282 9.70655 6.40565 8.51987 7.391 7.51823C8.37635 6.51659 9.55013 5.71979 10.8447 5.17371C12.1393 4.62763 13.5292 4.34307 14.9342 4.33641C20.8109 4.2816 25.6073 9.03473 25.6585 14.9705C25.7169 20.8415 20.958 25.6141 14.9999 25.6609Z" fill="white"/>
<path d="M14.1346 17.8936C14.1346 16.5796 14.1346 15.2655 14.1346 13.951C14.1346 13.3741 14.4772 12.9905 14.9935 12.9883C15.5099 12.9861 15.8654 13.3691 15.8654 13.9409C15.8654 16.5688 15.8654 19.1967 15.8654 21.8246C15.8654 22.3893 15.4969 22.7902 14.9921 22.7852C14.4952 22.7801 14.1346 22.382 14.1346 21.8354C14.1346 20.5215 14.1346 19.2075 14.1346 17.8936Z" fill="#222222"/>
<path d="M15.0138 7.79938C15.2981 7.80297 15.575 7.89078 15.8095 8.05171C16.0439 8.21265 16.2254 8.43948 16.3309 8.70354C16.4365 8.96759 16.4614 9.25701 16.4024 9.5352C16.3435 9.8134 16.2034 10.0679 15.9999 10.2665C15.7964 10.4651 15.5385 10.5988 15.259 10.6509C14.9794 10.703 14.6907 10.671 14.4293 10.559C14.1679 10.447 13.9456 10.26 13.7905 10.0217C13.6354 9.78337 13.5544 9.5044 13.5578 9.22006C13.5635 8.83891 13.7198 8.47552 13.9927 8.20931C14.2655 7.9431 14.6326 7.79572 15.0138 7.79938Z" fill="#222222"/>
</svg>
