<svg width="30" height="30" viewBox="0 0 30 30" fill="none" xmlns="http://www.w3.org/2000/svg">
<g clip-path="url(#clip0_278_326)">
<path d="M7.66333 29.9948H7.37036C6.65332 29.9216 5.9502 29.789 5.27783 29.5144C3.29517 28.7036 1.79883 27.3691 0.843754 25.4384C0.451175 24.6452 0.174318 23.819 0.082033 22.9379C0.05078 22.648 0.0348869 22.3566 0.0344238 22.0649C0.0344238 17.4174 0.0344238 12.7702 0.0344238 8.12325C0.0344238 5.47628 1.15943 3.37496 3.19409 1.73507C4.21948 0.905965 5.40527 0.397663 6.69507 0.134724C7.1171 0.060362 7.54548 0.0282211 7.97388 0.0387768C12.6013 0.0343823 17.2288 0.0497628 21.8569 0.029255C23.77 0.0211984 25.4524 0.62032 26.9378 1.79513C28.5022 3.03365 29.4719 4.65157 29.8975 6.59468C29.9583 6.87008 29.915 7.15719 29.9927 7.43038V7.66402C29.9714 7.68822 29.9597 7.71933 29.9597 7.75154C29.9597 7.78376 29.9714 7.81487 29.9927 7.83907V22.2788C29.9837 22.2856 29.9765 22.2944 29.9715 22.3045C29.9665 22.3146 29.9639 22.3257 29.9639 22.337C29.9639 22.3483 29.9665 22.3594 29.9715 22.3695C29.9765 22.3796 29.9837 22.3884 29.9927 22.3952V22.6882C29.9143 23.3942 29.7803 24.0849 29.5137 24.7478C28.708 26.7443 27.3728 28.2451 25.4363 29.2053C24.8331 29.5009 24.1981 29.7268 23.5437 29.8784C23.2207 29.9553 22.8845 29.9172 22.5681 29.9956H22.3931C22.3862 29.9865 22.3774 29.9791 22.3672 29.974C22.3571 29.9689 22.3458 29.9663 22.3345 29.9663C22.3231 29.9663 22.3119 29.9689 22.3017 29.974C22.2916 29.9791 22.2827 29.9865 22.2759 29.9956H7.83692C7.81277 29.9749 7.78206 29.9634 7.75026 29.9633C7.71846 29.9632 7.68765 29.9743 7.66333 29.9948Z" fill="#002840"/>
<path d="M29.9948 7.83692C29.9216 7.77832 29.9033 7.72046 29.9948 7.66187V7.83692Z" fill="#002840"/>
<path d="M7.66333 29.9949C7.72192 29.9041 7.78052 29.9217 7.83911 29.9949H7.66333Z" fill="#002840"/>
<path d="M29.995 22.3953C29.91 22.3564 29.9217 22.3176 29.995 22.2788V22.3953Z" fill="#002840"/>
<path d="M22.2781 29.9949C22.3169 29.9217 22.3564 29.9107 22.3953 29.9949H22.2781Z" fill="#002840"/>
<path d="M28.2312 15.0593C28.2312 17.2512 28.2312 19.4434 28.2312 21.6357C28.2312 23.0559 27.865 24.3684 27.0212 25.522C25.7029 27.3179 23.9106 28.2188 21.6936 28.2268C17.2502 28.2429 12.8069 28.2429 8.36353 28.2268C5.20679 28.2188 2.6748 26.1804 1.97241 23.1123C1.86803 22.6262 1.81889 22.1299 1.82593 21.6328C1.823 17.2295 1.823 12.8259 1.82593 8.42212C1.82593 5.52173 3.47461 3.16626 6.18457 2.18115C6.89648 1.92188 7.63989 1.82886 8.39282 1.82812C12.8157 1.82422 17.2388 1.82422 21.6621 1.82812C24.835 1.83325 27.375 3.86499 28.0825 6.94409C28.1873 7.44001 28.2364 7.94607 28.229 8.45288C28.2324 10.6555 28.2332 12.8577 28.2312 15.0593Z" fill="white"/>
<path d="M23.2332 15.0198C23.2552 19.5257 19.5586 23.2273 15.0301 23.2339C10.5015 23.2405 6.81376 19.5396 6.82694 15.0257C6.8308 12.8542 7.69428 10.7726 9.22859 9.23591C10.7629 7.69927 12.8432 6.83263 15.0147 6.82547C19.5074 6.78884 23.2119 10.4803 23.2332 15.0198Z" fill="#002840"/>
<path d="M23.7356 3.84159C24.3948 3.84641 25.0254 4.11126 25.4904 4.57854C25.9553 5.04582 26.217 5.67776 26.2185 6.33695C26.2083 7.70072 25.0694 8.8367 23.7224 8.82718C22.3755 8.81766 21.2256 7.66922 21.2322 6.3245C21.2403 4.96439 22.3814 3.83426 23.7356 3.84159Z" fill="#002840"/>
<path d="M21.465 15.0461C21.4511 18.6035 18.55 21.4871 15.0058 21.4658C11.4448 21.4446 8.56635 18.5413 8.59345 14.9985C8.60275 13.2957 9.28607 11.6659 10.4939 10.4655C11.7018 9.26522 13.3359 8.59213 15.0388 8.59351C18.5932 8.60156 21.4797 11.499 21.465 15.0461Z" fill="white"/>
<path d="M23.7261 5.61035C23.9166 5.60996 24.0995 5.68502 24.2348 5.81911C24.3702 5.9532 24.4469 6.13542 24.4482 6.32593C24.4472 6.51641 24.3719 6.69897 24.2384 6.83489C24.105 6.97081 23.9238 7.04939 23.7334 7.05396C23.5426 7.04892 23.3609 6.97163 23.2249 6.8377C23.0889 6.70377 23.0089 6.52321 23.001 6.33252C23.0046 6.14161 23.0822 5.95956 23.2175 5.82481C23.3528 5.69007 23.5351 5.61317 23.7261 5.61035Z" fill="white"/>
</g>
<defs>
<clipPath id="clip0_278_326">
<rect width="30" height="30" fill="white"/>
</clipPath>
</defs>
</svg>
