<svg width="30" height="30" viewBox="0 0 30 30" fill="none" xmlns="http://www.w3.org/2000/svg">
<g clip-path="url(#clip0_370_348)">
<path d="M7.66333 29.995H7.37036C6.65332 29.9217 5.9502 29.7891 5.27783 29.5145C3.29517 28.7037 1.79883 27.3692 0.843754 25.4386C0.451175 24.6453 0.174318 23.8192 0.082033 22.9381C0.05078 22.6481 0.0348869 22.3567 0.0344238 22.065C0.0344238 17.4176 0.0344238 12.7703 0.0344238 8.12337C0.0344238 5.4764 1.15943 3.37508 3.19409 1.73519C4.21948 0.906087 5.40527 0.397785 6.69507 0.134846C7.1171 0.060484 7.54548 0.0283432 7.97388 0.0388989C12.6013 0.0345044 17.2288 0.0498849 21.8569 0.0293771C23.77 0.0213204 25.4524 0.620443 26.9378 1.79525C28.5022 3.03377 29.4719 4.65169 29.8975 6.59481C29.9583 6.8702 29.915 7.15731 29.9927 7.4305V7.66414C29.9714 7.68834 29.9597 7.71945 29.9597 7.75167C29.9597 7.78388 29.9714 7.81499 29.9927 7.83919V22.2789C29.9837 22.2857 29.9765 22.2945 29.9715 22.3046C29.9665 22.3147 29.9639 22.3258 29.9639 22.3371C29.9639 22.3484 29.9665 22.3595 29.9715 22.3696C29.9765 22.3797 29.9837 22.3885 29.9927 22.3953V22.6883C29.9143 23.3944 29.7803 24.085 29.5137 24.7479C28.708 26.7445 27.3728 28.2452 25.4363 29.2054C24.8331 29.5011 24.1981 29.7269 23.5437 29.8785C23.2207 29.9554 22.8845 29.9173 22.5681 29.9957H22.3931C22.3862 29.9866 22.3774 29.9792 22.3672 29.9741C22.3571 29.969 22.3458 29.9664 22.3345 29.9664C22.3231 29.9664 22.3119 29.969 22.3017 29.9741C22.2916 29.9792 22.2827 29.9866 22.2759 29.9957H7.83692C7.81277 29.975 7.78206 29.9636 7.75026 29.9634C7.71846 29.9633 7.68765 29.9745 7.66333 29.995Z" fill="white"/>
<path d="M29.9948 7.83692C29.9216 7.77832 29.9033 7.72046 29.9948 7.66187V7.83692Z" fill="white"/>
<path d="M7.66333 29.9948C7.72192 29.904 7.78052 29.9216 7.83911 29.9948H7.66333Z" fill="white"/>
<path d="M29.9948 22.3953C29.9099 22.3564 29.9216 22.3176 29.9948 22.2788V22.3953Z" fill="white"/>
<path d="M22.2781 29.9949C22.3169 29.9217 22.3564 29.9107 22.3953 29.9949H22.2781Z" fill="white"/>
<path d="M28.2312 15.0593C28.2312 17.2512 28.2312 19.4434 28.2312 21.6357C28.2312 23.0559 27.865 24.3684 27.0212 25.522C25.7029 27.3179 23.9106 28.2188 21.6936 28.2268C17.2502 28.2429 12.8069 28.2429 8.36353 28.2268C5.20679 28.2188 2.6748 26.1804 1.97241 23.1123C1.86803 22.6262 1.81889 22.1299 1.82593 21.6328C1.823 17.2295 1.823 12.8259 1.82593 8.42212C1.82593 5.52173 3.47461 3.16626 6.18457 2.18115C6.89648 1.92188 7.63989 1.82886 8.39282 1.82812C12.8157 1.82422 17.2388 1.82422 21.6621 1.82812C24.835 1.83325 27.375 3.86499 28.0825 6.94409C28.1873 7.44001 28.2364 7.94607 28.229 8.45288C28.2324 10.6555 28.2332 12.8577 28.2312 15.0593Z" fill="#002840"/>
<path d="M23.2332 15.0198C23.2552 19.5257 19.5586 23.2273 15.0301 23.2339C10.5015 23.2405 6.81376 19.5396 6.82694 15.0257C6.8308 12.8542 7.69428 10.7726 9.22859 9.23591C10.7629 7.69927 12.8432 6.83263 15.0147 6.82547C19.5074 6.78884 23.2119 10.4803 23.2332 15.0198Z" fill="white"/>
<path d="M23.7356 3.84159C24.3948 3.84641 25.0254 4.11126 25.4904 4.57854C25.9553 5.04582 26.217 5.67776 26.2185 6.33695C26.2083 7.70072 25.0694 8.8367 23.7224 8.82718C22.3755 8.81766 21.2256 7.66922 21.2322 6.3245C21.2403 4.96439 22.3814 3.83426 23.7356 3.84159Z" fill="white"/>
<path d="M21.465 15.0461C21.4511 18.6035 18.55 21.4871 15.0058 21.4658C11.4448 21.4446 8.56635 18.5413 8.59345 14.9985C8.60275 13.2957 9.28607 11.6659 10.4939 10.4655C11.7018 9.26522 13.3359 8.59213 15.0388 8.59351C18.5932 8.60156 21.4797 11.499 21.465 15.0461Z" fill="#002840"/>
<path d="M23.7261 5.61035C23.9166 5.60996 24.0995 5.68502 24.2348 5.81911C24.3702 5.9532 24.4469 6.13542 24.4482 6.32593C24.4472 6.51641 24.3719 6.69897 24.2384 6.83489C24.105 6.97081 23.9238 7.04939 23.7334 7.05396C23.5426 7.04892 23.3609 6.97163 23.2249 6.8377C23.0889 6.70377 23.0089 6.52321 23.001 6.33252C23.0046 6.14161 23.0822 5.95956 23.2175 5.82481C23.3528 5.69007 23.5351 5.61317 23.7261 5.61035Z" fill="#002840"/>
</g>
<defs>
<clipPath id="clip0_370_348">
<rect width="30" height="30" fill="white"/>
</clipPath>
</defs>
</svg>
