<svg width="30" height="30" viewBox="0 0 30 30" fill="none" xmlns="http://www.w3.org/2000/svg">
<path d="M29.9941 6.08493V25.8442C29.9553 26.2939 29.8616 26.7231 29.5898 27.1003C29.05 27.851 28.3052 28.207 27.4014 28.2722C27.2944 28.2795 27.1875 28.2722 27.0798 28.2722C19.0442 28.2722 11.0088 28.2722 2.97362 28.2722C2.61255 28.2809 2.25218 28.236 1.90429 28.1389C0.938958 27.8459 0.0219663 26.967 0.0322202 25.6054C0.0476011 23.5503 0.0366146 21.4951 0.0366146 19.4399V6.37716C0.0366146 5.6257 0.363274 5.29464 1.12573 5.29391C3.49242 5.29049 5.85912 5.29049 8.22582 5.29391C8.32323 5.29391 8.42065 5.29025 8.51879 5.29391C8.71362 5.29904 8.80077 5.21042 8.80077 5.0134C8.79028 4.72132 8.80327 4.42888 8.83959 4.13888C9.06591 2.76999 10.1089 1.81418 11.4968 1.79513C13.8537 1.76584 16.2114 1.76144 18.5676 1.79513C20.0896 1.81784 21.2131 2.99557 21.2563 4.51974C21.2607 4.67575 21.2644 4.83175 21.2563 4.98703C21.2461 5.21481 21.3523 5.29611 21.5727 5.29318C22.0693 5.28732 22.5659 5.29318 23.0632 5.29318H28.6728C28.7805 5.29318 28.8874 5.29318 28.9944 5.29318C29.6279 5.3049 29.8447 5.47775 29.9941 6.08493Z" fill="#222222"/>
<path d="M28.2407 11.8184V16.3469C28.2407 19.3474 28.2407 22.3477 28.2407 25.3477C28.2407 26.1108 27.9243 26.4287 27.1611 26.4287H2.90772C2.12915 26.4287 1.82007 26.1152 1.82007 25.3301C1.82007 20.9175 1.82007 16.5049 1.82007 12.0923V11.8154L1.86694 11.8088C2.18189 12.7527 2.49707 13.6965 2.8125 14.6404C2.94507 15.0359 3.07105 15.4343 3.21314 15.8269C3.63794 17.0046 4.56006 17.658 5.80884 17.6616C7.31836 17.666 8.82862 17.6697 10.3381 17.6565C10.5908 17.6565 10.689 17.7078 10.6509 17.9692C10.6392 18.1245 10.6392 18.2805 10.6509 18.4358C10.656 19.0627 11.0024 19.415 11.6265 19.4158C13.7593 19.4158 15.8923 19.4158 18.0256 19.4158C18.1721 19.4158 18.3186 19.4158 18.4651 19.4158C19.0562 19.4077 19.4106 19.0576 19.4172 18.4731C19.4279 18.3078 19.4279 18.1419 19.4172 17.9766C19.3894 17.7349 19.4487 17.6506 19.7212 17.6543C21.2014 17.6711 22.6816 17.6624 24.1626 17.6616C25.5542 17.6616 26.4653 17.0024 26.9099 15.6694C27.3391 14.3833 27.7693 13.0974 28.2004 11.8118L28.2407 11.8184Z" fill="white"/>
<path d="M2.16431 7.14771H27.8965C27.5112 8.30566 27.1311 9.44678 26.751 10.5901C26.2539 12.0828 25.7563 13.5754 25.2583 15.0681C25.0334 15.7441 24.8042 15.9089 24.0864 15.9089C22.6348 15.9089 21.1831 15.9038 19.7322 15.9148C19.4919 15.9148 19.366 15.8826 19.4136 15.6079C19.4264 15.4527 19.4264 15.2966 19.4136 15.1414C19.4092 14.5005 19.0627 14.1563 18.4138 14.1555C16.739 14.1555 15.0635 14.1555 13.3872 14.1555C12.7932 14.1555 12.1985 14.1519 11.6045 14.1555C11.0105 14.1592 10.6523 14.5137 10.6457 15.123C10.6457 15.375 10.7322 15.7141 10.6047 15.8555C10.4582 16.0203 10.1111 15.906 9.85181 15.9067C8.50757 15.9121 7.16333 15.9121 5.81909 15.9067C5.32837 15.9067 5.02148 15.7163 4.87353 15.2754C3.96826 12.5771 3.07617 9.87744 2.16431 7.14771Z" fill="white"/>
<path d="M15.0234 5.3833C13.6516 5.3833 12.2798 5.37817 10.9079 5.38916C10.6882 5.38916 10.615 5.33569 10.6421 5.1189C10.6523 4.94403 10.6538 4.76876 10.6465 4.59375C10.6531 3.9873 11.0024 3.63281 11.6074 3.63062C12.843 3.63062 14.0786 3.63062 15.3142 3.63062C16.3454 3.63062 17.3767 3.63062 18.4079 3.63062C19.0671 3.63062 19.4128 3.97339 19.4128 4.63696C19.4128 4.8772 19.4897 5.19434 19.3681 5.33789C19.2466 5.48145 18.9118 5.38037 18.6716 5.38184C17.4558 5.38623 16.2392 5.3833 15.0234 5.3833Z" fill="white"/>
<path d="M15.0007 17.6602C14.2119 17.6602 13.4224 17.6536 12.6335 17.6645C12.4424 17.6645 12.3889 17.6162 12.3948 17.425C12.4094 16.9775 12.405 16.5293 12.3948 16.0811C12.3948 15.9397 12.4351 15.9031 12.5742 15.9031C14.2104 15.9075 15.8462 15.9075 17.4814 15.9031C17.6213 15.9031 17.6624 15.9419 17.6602 16.0818C17.6514 16.5396 17.6492 16.998 17.6602 17.4551C17.6638 17.6213 17.6147 17.6653 17.4507 17.6638C16.637 17.655 15.8203 17.6602 15.0007 17.6602Z" fill="white"/>
</svg>
