<svg width="30" height="30" viewBox="0 0 30 30" fill="none" xmlns="http://www.w3.org/2000/svg">
<path d="M16.2593 13.132C16.7313 12.4047 17.3643 11.7957 18.1093 11.3523C19.3132 10.6429 20.6226 10.5085 21.9796 10.6366C22.932 10.7265 23.8421 10.957 24.6492 11.496C25.7812 12.2499 26.3421 13.371 26.6531 14.6484C26.939 15.8202 26.9937 17.0218 26.9968 18.2234C27.0039 21.0445 26.9968 23.8656 27.0054 26.6866C27.0054 26.9327 26.9226 26.9663 26.7093 26.9655C25.2348 26.9567 23.7609 26.9567 22.2875 26.9655C22.0703 26.9655 22.0148 26.9171 22.0156 26.696C22.0229 24.021 22.0229 21.3463 22.0156 18.6718C22.0194 18.1053 21.9671 17.5397 21.8593 16.9835C21.525 15.3249 20.4531 14.796 18.9601 14.971C17.5601 15.1359 16.8031 15.964 16.5765 17.471C16.497 18.0215 16.4592 18.5773 16.4632 19.1335C16.4632 21.6624 16.4632 24.1905 16.4695 26.7187C16.4695 26.953 16.4109 27.007 16.182 27.0046C14.7179 26.9937 13.2539 26.9937 11.7898 27.0046C11.5554 27.0046 11.4773 26.9648 11.4773 26.7101C11.4856 21.5658 11.4856 16.421 11.4773 11.2757C11.4773 11.0351 11.5335 10.9687 11.7796 10.971C13.1859 10.9835 14.5921 10.9812 15.9984 10.971C16.2023 10.971 16.2648 11.0234 16.2601 11.2304C16.25 11.8655 16.2593 12.4999 16.2593 13.132Z" fill="white"/>
<path d="M3.39839 18.9843C3.39839 16.4187 3.40308 13.853 3.39136 11.2874C3.39136 11.0241 3.45933 10.9687 3.71245 10.971C5.17574 10.9843 6.63902 10.982 8.1023 10.971C8.31167 10.971 8.38276 11.0101 8.38198 11.239C8.37521 16.4098 8.37521 21.5804 8.38198 26.7507C8.38198 26.9632 8.31792 27.0054 8.11948 27.0038C6.63511 26.996 5.15073 26.9929 3.67183 27.0038C3.42339 27.0038 3.39449 26.9187 3.39527 26.707C3.401 24.134 3.40204 21.5598 3.39839 18.9843Z" fill="white"/>
<path d="M8.75941 5.87261C8.76956 7.46089 7.47659 8.78199 5.90316 8.79058C4.32972 8.79917 3.00237 7.47808 3.00159 5.88277C3.00024 5.11923 3.30227 4.38644 3.84122 3.84559C4.38016 3.30474 5.11189 3.00013 5.87542 2.99878C6.63896 2.99744 7.37175 3.29946 7.9126 3.8384C8.45346 4.37735 8.75806 5.10908 8.75941 5.87261Z" fill="white"/>
</svg>
