<svg width="30" height="30" viewBox="0 0 30 30" fill="none" xmlns="http://www.w3.org/2000/svg">
<path d="M16.2593 13.1321C16.7313 12.4048 17.3643 11.7958 18.1093 11.3524C19.3132 10.643 20.6226 10.5086 21.9796 10.6368C22.932 10.7266 23.8421 10.9571 24.6492 11.4961C25.7812 12.25 26.3421 13.3711 26.6531 14.6485C26.939 15.8204 26.9937 17.0219 26.9968 18.2235C27.0039 21.0446 26.9968 23.8657 27.0054 26.6868C27.0054 26.9329 26.9226 26.9664 26.7093 26.9657C25.2348 26.9568 23.7609 26.9568 22.2875 26.9657C22.0703 26.9657 22.0148 26.9172 22.0156 26.6961C22.0229 24.0211 22.0229 21.3464 22.0156 18.6719C22.0194 18.1054 21.9671 17.5399 21.8593 16.9836C21.525 15.325 20.4531 14.7961 18.9601 14.9711C17.5601 15.136 16.8031 15.9641 16.5765 17.4711C16.497 18.0217 16.4592 18.5774 16.4632 19.1336C16.4632 21.6625 16.4632 24.1907 16.4695 26.7188C16.4695 26.9532 16.4109 27.0071 16.182 27.0047C14.7179 26.9938 13.2539 26.9938 11.7898 27.0047C11.5554 27.0047 11.4773 26.9649 11.4773 26.7102C11.4856 21.5659 11.4856 16.4211 11.4773 11.2758C11.4773 11.0352 11.5335 10.9688 11.7796 10.9711C13.1859 10.9836 14.5921 10.9813 15.9984 10.9711C16.2023 10.9711 16.2648 11.0235 16.2601 11.2305C16.25 11.8657 16.2593 12.5 16.2593 13.1321Z" fill="#002840"/>
<path d="M3.39839 18.9844C3.39839 16.4188 3.40308 13.8532 3.39136 11.2875C3.39136 11.0243 3.45933 10.9688 3.71245 10.9711C5.17574 10.9844 6.63902 10.9821 8.1023 10.9711C8.31167 10.9711 8.38276 11.0102 8.38198 11.2391C8.37521 16.4099 8.37521 21.5805 8.38198 26.7508C8.38198 26.9633 8.31792 27.0055 8.11948 27.004C6.63511 26.9961 5.15073 26.993 3.67183 27.004C3.42339 27.004 3.39449 26.9188 3.39527 26.7071C3.401 24.1342 3.40204 21.5599 3.39839 18.9844Z" fill="#002840"/>
<path d="M8.75928 5.87261C8.76944 7.46089 7.47647 8.78199 5.90303 8.79058C4.3296 8.79917 3.00225 7.47808 3.00147 5.88277C3.00012 5.11923 3.30215 4.38644 3.84109 3.84559C4.38004 3.30474 5.11177 3.00013 5.8753 2.99878C6.63883 2.99744 7.37163 3.29946 7.91248 3.8384C8.45333 4.37735 8.75794 5.10908 8.75928 5.87261Z" fill="#002840"/>
</svg>
