<svg width="26" height="26" viewBox="0 0 26 26" fill="none" xmlns="http://www.w3.org/2000/svg">
<path d="M13 24.6371C10.5043 24.6371 8.00876 24.6371 5.51348 24.6371C4.5527 24.6371 3.83025 24.0954 3.59124 23.2206C3.54168 23.0237 3.51891 22.821 3.52354 22.618C3.52354 19.0913 3.52354 15.5639 3.52354 12.0359C3.52354 10.8293 4.33604 10.0229 5.55005 10.0188C5.88859 10.0188 6.22713 10.01 6.56567 10.0222C6.72885 10.0283 6.77895 9.9843 6.77625 9.81503C6.76677 9.08784 6.76744 8.35998 6.77625 7.63279C6.79724 4.86623 8.46895 2.54113 11.0642 1.67446C14.6934 0.455711 18.6022 2.86071 19.1587 6.65102C19.3003 7.61857 19.2149 8.5929 19.2373 9.56248C19.2434 9.66395 19.2434 9.7657 19.2373 9.86717C19.2258 9.99243 19.2779 10.0236 19.3957 10.0215C19.7593 10.0148 20.1236 10.0168 20.4872 10.0215C21.6653 10.0297 22.4846 10.8374 22.4866 12.0142C22.4907 15.5585 22.4907 19.1019 22.4866 22.6444C22.4866 23.8279 21.6741 24.635 20.494 24.6371C17.9928 24.6402 15.4948 24.6402 13 24.6371Z" fill="#A7A7A7"/>
<path d="M12.9906 23.0127H5.60698C5.19667 23.0127 5.14453 22.9599 5.14453 22.5387V12.1117C5.14453 11.7054 5.20886 11.6377 5.6124 11.6377H20.3803C20.7865 11.6377 20.8542 11.7013 20.8542 12.1015V22.5604C20.8542 22.9545 20.7953 23.0127 20.3985 23.0127H12.9906Z" fill="white"/>
<path d="M12.9931 10.0209C11.5387 10.0209 10.0816 10.0175 8.62931 10.0257C8.44446 10.0257 8.38285 9.98774 8.38826 9.7907C8.41602 8.89492 8.35441 7.99779 8.42686 7.10268C8.58597 5.12357 10.2428 3.353 12.2111 3.0544C14.8212 2.65899 17.1023 4.29347 17.5478 6.8894C17.6514 7.49201 17.6007 8.10409 17.6061 8.71279C17.6061 9.07638 17.5966 9.44065 17.6108 9.80357C17.6183 9.98706 17.5546 10.0257 17.3826 10.025C15.9195 10.0148 14.4563 10.0209 12.9931 10.0209Z" fill="white"/>
<path d="M12.996 14.625C13.3323 14.6238 13.6605 14.7275 13.9351 14.9217C14.2096 15.1159 14.4167 15.3909 14.5276 15.7083C14.645 16.0237 14.6577 16.3684 14.5639 16.6916C14.4702 17.0147 14.2749 17.2991 14.0069 17.5026C13.8512 17.6211 13.795 17.7369 13.8099 17.9197C13.8183 18.0801 13.8183 18.2408 13.8099 18.4011C13.797 18.8669 13.43 19.236 12.9899 19.2292C12.7766 19.2211 12.5745 19.1314 12.4252 18.9788C12.2759 18.8261 12.1909 18.622 12.1876 18.4086C12.1876 18.3578 12.1876 18.3063 12.1876 18.2562C12.2106 17.8987 12.1598 17.6211 11.8409 17.3422C11.3257 16.8912 11.2478 16.2588 11.5024 15.6203C11.6242 15.3247 11.8314 15.0722 12.0974 14.8949C12.3635 14.7176 12.6763 14.6236 12.996 14.625Z" fill="#A7A7A7"/>
</svg>
