<svg width="30" height="30" viewBox="0 0 30 30" fill="none" xmlns="http://www.w3.org/2000/svg">
<path d="M2.69152 15.5821C2.69152 12.7366 2.69152 9.89156 2.69152 7.04703C2.69152 5.37412 3.80584 4.09866 5.46014 3.85517C5.61121 3.83665 5.76345 3.82923 5.91561 3.83297C9.29725 3.83297 12.6789 3.83297 16.0605 3.83297C17.9182 3.83297 19.2896 5.2094 19.2932 7.07138C19.2932 7.77846 19.2932 8.48529 19.2932 9.19189C19.2932 9.7426 18.943 10.1229 18.4424 10.1265C17.9418 10.13 17.578 9.74547 17.578 9.17971C17.578 8.47359 17.578 7.76676 17.578 7.05992C17.5745 6.15328 16.9708 5.551 16.0598 5.551C12.6782 5.551 9.29653 5.551 5.91489 5.551C5.01828 5.551 4.41099 6.14684 4.41099 7.04345C4.40812 12.7339 4.40812 18.4242 4.41099 24.1142C4.41099 24.9879 5.00252 25.5866 5.87264 25.588C9.28149 25.5938 12.6901 25.5938 16.0985 25.588C16.9786 25.588 17.573 24.9779 17.5759 24.0963C17.5759 23.0049 17.5759 21.9135 17.5759 20.8221C17.5759 20.2492 17.9239 19.8718 18.4353 19.8739C18.9466 19.8761 19.2889 20.2592 19.2896 20.8321C19.2896 21.9321 19.2939 23.0328 19.2896 24.1336C19.2818 25.9039 17.929 27.2953 16.1586 27.3032C12.714 27.319 9.26956 27.319 5.82537 27.3032C4.03501 27.2961 2.69295 25.916 2.68794 24.1164C2.68651 21.2718 2.69152 18.4273 2.69152 15.5821Z" fill="#222222"/>
<path d="M24.3943 15.8594H10.5218C9.93958 15.8594 9.5543 15.5013 9.56504 14.9771C9.5691 14.7652 9.65211 14.5624 9.79782 14.4085C9.94352 14.2546 10.1414 14.1606 10.3528 14.1449C10.4423 14.1378 10.5318 14.1449 10.6214 14.1449H24.3134C24.3134 14.0411 24.2317 14.0089 24.1809 13.958C23.2291 12.9998 22.2716 12.0466 21.3213 11.0863C20.8092 10.5685 21.0012 9.76929 21.6743 9.60315C22.0152 9.51864 22.301 9.63394 22.5473 9.88316C23.5791 10.9216 24.6153 11.9588 25.6561 12.9948C26.1116 13.4503 26.5692 13.9038 27.029 14.3555C27.3992 14.7214 27.4135 15.2607 27.0512 15.6231C25.5463 17.1289 24.0403 18.6328 22.533 20.1348C22.3946 20.2884 22.2074 20.3896 22.0031 20.4212C21.8298 20.4481 21.6525 20.4213 21.495 20.3445C21.3374 20.2677 21.2071 20.1445 21.1215 19.9916C21.0312 19.8353 20.9943 19.6539 21.0164 19.4748C21.0385 19.2956 21.1184 19.1286 21.2439 18.999C21.5053 18.7168 21.7825 18.449 22.0546 18.1776C22.8152 17.4249 23.5772 16.6694 24.3943 15.8594Z" fill="#222222"/>
</svg>
