<svg width="30" height="30" viewBox="0 0 30 30" fill="none" xmlns="http://www.w3.org/2000/svg">
<path d="M29.9941 20.4663C29.8872 20.6128 29.9062 20.7944 29.8638 20.9585C29.4155 22.6929 27.8408 24.1995 25.5337 24.1877C21.5691 24.1672 17.6045 24.1833 13.6399 24.1782C13.4375 24.1718 13.2395 24.2381 13.0818 24.365C11.2751 25.7683 9.46509 27.1667 7.65161 28.5603C7.11621 28.9719 6.55298 28.9338 6.2168 28.4673C6.07031 28.26 6.03808 28.0205 6.03662 27.7744C6.03076 26.6831 6.01245 25.5918 6.02564 24.5012C6.0293 24.2156 5.92822 24.1753 5.6792 24.176C4.96948 24.176 4.25757 24.2251 3.55078 24.1028C1.64648 23.7681 0.153806 22.0718 0.0710424 20.1396C0.0666479 20.0232 0.0644531 19.906 0.0644531 19.7888C0.0644531 15.0554 0.0644531 10.3213 0.0644531 5.58642C0.0644531 3.36719 1.5044 1.64526 3.67676 1.26514C3.95578 1.22129 4.23811 1.20193 4.52051 1.20728C11.5244 1.20435 18.5283 1.20435 25.5322 1.20728C27.564 1.20728 29.1526 2.31103 29.7744 4.15161C29.866 4.42187 29.9209 4.70386 29.9941 4.98071V20.4663Z" fill="#222222"/>
<path d="M7.83692 26.0911C7.83692 25.1616 7.83692 24.2966 7.83692 23.4316C7.83692 22.6934 7.4817 22.3462 6.73829 22.3447C5.94947 22.3447 5.15992 22.3542 4.3711 22.3447C3.17652 22.3264 2.30421 21.6467 1.97901 20.4961C1.91453 20.2415 1.8852 19.9793 1.89185 19.7168C1.89185 15.0293 1.89185 10.3438 1.89185 5.66016C1.89185 4.0752 2.92237 3.04102 4.49927 3.04102C11.5222 3.04102 18.5457 3.04102 25.5696 3.04102C26.8535 3.04102 27.742 3.7002 28.0811 4.88818C28.1461 5.14266 28.1757 5.40491 28.1689 5.66748C28.1689 10.355 28.1689 15.0408 28.1689 19.7249C28.1689 21.323 27.1384 22.3469 25.5359 22.3469C21.4539 22.3469 17.3723 22.3457 13.2913 22.3433C12.9111 22.3358 12.5405 22.4626 12.2446 22.7014C10.8633 23.7795 9.47315 24.8459 8.08595 25.916C8.02442 25.96 7.95997 26.001 7.83692 26.0911Z" fill="white"/>
<path d="M14.9213 6.68701C15.8468 6.69122 16.6814 6.86454 17.4159 7.39164C18.6935 8.30913 19.1121 9.94891 18.399 11.2875C18.0982 11.852 17.6418 12.29 17.1791 12.7211C16.8716 13.008 16.5565 13.2857 16.2595 13.5839C15.8661 13.9798 15.6768 14.4589 15.631 15.0058C15.6205 15.132 15.6116 15.2582 15.5994 15.3844C15.5931 15.4932 15.5454 15.5953 15.466 15.67C15.3867 15.7446 15.2818 15.786 15.1729 15.7857C14.9996 15.7912 14.8262 15.7895 14.6525 15.7857C14.3669 15.7824 14.1872 15.6091 14.1856 15.326C14.178 14.3041 14.4918 13.4102 15.2335 12.682C15.594 12.3282 15.9759 11.9984 16.3424 11.6518C16.512 11.4945 16.6717 11.3269 16.8207 11.1499C17.307 10.5589 17.3751 9.90137 17.0802 9.21484C16.461 7.77613 14.4384 7.40805 13.3526 8.52619C13.0371 8.85137 12.8705 9.25564 12.73 9.67758C12.6972 9.78197 12.6417 9.87782 12.5675 9.95825C12.4933 10.0387 12.4022 10.1017 12.3008 10.1428C12.1993 10.184 12.0901 10.2022 11.9808 10.1961C11.8715 10.1901 11.7649 10.16 11.6687 10.1079C11.5131 10.0278 11.3905 9.89596 11.3218 9.73505C11.2531 9.57415 11.2428 9.39432 11.2926 9.22662C11.6863 7.82788 12.8112 6.88094 14.2533 6.72656C14.4897 6.703 14.7253 6.69458 14.9213 6.68701Z" fill="#222222" stroke="#222222" stroke-width="0.1"/>
<path d="M14.1094 17.8694C14.11 17.706 14.1592 17.5465 14.2506 17.4111C14.3421 17.2757 14.4717 17.1706 14.6231 17.109C14.7744 17.0475 14.9406 17.0323 15.1006 17.0655C15.2606 17.0986 15.4071 17.1785 15.5216 17.2951C15.636 17.4117 15.7133 17.5597 15.7434 17.7203C15.7736 17.8808 15.7554 18.0468 15.691 18.1969C15.6267 18.3471 15.5192 18.4748 15.3821 18.5637C15.2451 18.6527 15.0847 18.6989 14.9213 18.6964C14.7044 18.6932 14.4974 18.6046 14.3454 18.4498C14.1934 18.2949 14.1086 18.0864 14.1094 17.8694Z" fill="#222222" stroke="#222222" stroke-width="0.1"/>
</svg>
