<svg width="40" height="43" viewBox="0 0 40 43" fill="none" xmlns="http://www.w3.org/2000/svg">
<path d="M19.0468 42.9091C18.4722 42.6911 17.8545 42.6284 17.2818 42.3878C14.9608 41.4155 13.4513 39.73 12.784 37.307C12.6904 36.9841 12.5669 36.9121 12.2533 36.9139C9.38333 36.927 6.51332 36.9289 3.64331 36.9195C1.54883 36.913 -0.0262409 35.307 0.062667 33.264C0.0787675 32.7871 0.195475 32.3189 0.405142 31.8902C0.61481 31.4615 0.912705 31.082 1.2793 30.7765C4.47811 27.9923 6.04289 24.4706 6.04102 20.2404C6.04102 18.5396 6.04102 16.8398 6.04102 15.1409C6.04944 8.93321 9.75643 3.7307 15.6206 1.70922C17.2165 1.1629 18.9016 0.924712 20.5863 1.00731C21.7599 1.05972 22.4852 1.96564 22.1773 2.95673C21.9686 3.63618 21.3547 4.03392 20.6004 4.01146C16.3197 3.88512 13.0048 5.63614 10.6745 9.21117C9.58048 10.8911 9.0592 12.774 9.03768 14.7815C9.01803 16.6205 9.03768 18.4604 9.03019 20.3031C9.01085 25.35 7.1232 29.5614 3.36723 32.9374C3.16321 33.119 2.95358 33.2949 3.08647 33.6066C3.2072 33.8995 3.46082 33.9369 3.74158 33.9369C14.5921 33.9332 25.4429 33.9332 36.294 33.9369C36.5748 33.9369 36.8219 33.8985 36.936 33.5925C37.0502 33.2865 36.8621 33.1246 36.6703 32.9589C33.7759 30.4102 31.9684 27.2414 31.2478 23.4523C30.9184 21.7069 30.9755 19.9437 31.0148 18.1834C31.0307 17.4927 31.6334 16.949 32.325 16.8881C32.6758 16.8499 33.0287 16.938 33.3203 17.1366C33.612 17.3353 33.8232 17.6314 33.916 17.9719C33.976 18.2461 33.9981 18.5273 33.9815 18.8076C33.9646 20.6007 33.9543 22.3901 34.4635 24.1421C35.229 26.77 36.6225 28.9871 38.7095 30.7624C39.2555 31.2213 39.6479 31.8365 39.8339 32.5251C40.0199 33.2136 39.9905 33.9427 39.7497 34.6141C39.509 35.2855 39.0684 35.867 38.4872 36.2805C37.9061 36.6941 37.2122 36.9197 36.499 36.927C33.6146 36.9401 30.7303 36.9401 27.8459 36.927C27.4912 36.927 27.3228 36.9832 27.2161 37.3809C26.4206 40.3551 24.0051 42.429 20.9139 42.8464C20.8783 42.8464 20.8475 42.896 20.8147 42.9222L19.0468 42.9091Z" fill="#222222"/>
</svg>
