<svg width="26" height="26" viewBox="0 0 26 26" fill="none" xmlns="http://www.w3.org/2000/svg">
<path d="M25.9955 20.0173C25.8914 20.2248 25.8432 20.4565 25.6972 20.647C25.35 21.1002 24.8821 21.2766 24.3286 21.276C22.8687 21.276 21.4087 21.2805 19.9487 21.2703C19.7443 21.2703 19.7005 21.3287 19.7056 21.521C19.7183 22.0523 19.7139 22.5849 19.7056 23.1162C19.6974 24.0899 19.0537 24.7361 18.0851 24.7368C14.7246 24.7393 11.3642 24.7393 8.00372 24.7368C6.97858 24.7368 6.34762 24.102 6.34254 23.0826C6.34254 22.5589 6.33048 22.0352 6.34825 21.5121C6.35523 21.3014 6.28097 21.2709 6.09435 21.2716C4.66739 21.2792 3.2379 21.276 1.81349 21.276C0.656308 21.276 0.0532823 20.6717 0.0532823 19.5133C0.0532823 17.4782 0.0482042 15.4431 0.0532823 13.4087C0.0602648 11.3864 1.30885 9.73343 3.24552 9.16278C3.37247 9.12469 3.50641 9.09549 3.64225 9.06058C3.64923 8.95267 3.55148 8.91141 3.49625 8.8473C2.82963 8.09736 2.43575 7.14431 2.37843 6.14256C2.35938 5.8328 2.49967 5.64491 2.74088 5.63475C2.96685 5.62777 3.12174 5.79535 3.14332 6.09305C3.27027 7.9161 4.58995 9.23895 6.21558 9.54364C6.95827 9.68647 7.7269 9.59784 8.41759 9.28973C8.5877 9.21547 8.65435 9.0993 8.67149 8.92157C8.76739 7.83529 9.25357 6.82054 10.04 6.06512C10.1784 5.92992 10.332 5.81122 10.4799 5.68426C10.537 5.64041 10.5807 5.58158 10.6062 5.51433C10.6318 5.44708 10.6382 5.37406 10.6247 5.3034C10.3536 3.49305 8.79591 2.11688 6.9773 2.08514C6.2307 2.07271 5.49718 2.28198 4.86953 2.68649C4.24187 3.09099 3.74828 3.67255 3.45118 4.3576C3.41754 4.43505 3.38771 4.51312 3.34962 4.58866C3.22267 4.84637 3.04112 4.93842 2.82657 4.85209C2.61202 4.76576 2.5422 4.55375 2.63614 4.29794C2.94749 3.43401 3.5173 2.68689 4.26812 2.15814C6.8878 0.283679 10.5859 1.68524 11.314 4.82416C11.3889 5.14662 11.3877 5.14154 11.7114 5.03426C12.713 4.69784 13.716 4.69086 14.7113 5.05331C14.9309 5.13329 15.0077 5.10218 15.0693 4.86288C15.546 2.98524 16.7489 1.83251 18.6272 1.40214C19.4422 1.21488 20.2547 1.30883 21.0393 1.59257C21.3033 1.68651 21.4246 1.8744 21.3611 2.08514C21.2925 2.31239 21.0786 2.42157 20.8101 2.32889C20.3169 2.15224 19.7944 2.07144 19.2708 2.09086C17.5417 2.16703 15.9935 3.57811 15.7625 5.28944C15.746 5.36773 15.7527 5.44912 15.7818 5.52364C15.8109 5.59816 15.8611 5.66259 15.9262 5.70902C16.973 6.52152 17.5652 7.59046 17.708 8.9057C17.7321 9.12977 17.8413 9.24593 18.0432 9.32655C20.308 10.2343 22.7804 8.87269 23.1918 6.45741C23.3968 5.25516 23.0483 4.18876 22.2269 3.28358C22.1634 3.21503 22.0949 3.15282 22.0365 3.08172C21.8759 2.8913 21.8797 2.66405 22.0416 2.51805C22.192 2.38158 22.4186 2.3911 22.5887 2.5517C23.0629 2.98706 23.4319 3.52449 23.6678 4.12338C24.354 5.92484 24.0379 7.54413 22.7607 8.98124C22.7277 9.01869 22.6973 9.0555 22.6427 9.112C23.1714 9.26117 23.6583 9.45858 24.0912 9.76644C25.143 10.5123 25.7746 11.5152 25.9498 12.7981C25.9549 12.8317 25.9568 12.8647 25.9949 12.8781V12.979C25.9745 13.0271 25.964 13.0788 25.964 13.131C25.964 13.1833 25.9745 13.235 25.9949 13.283L25.9955 20.0173Z" fill="#222222"/>
<path d="M25.9955 13.2793C25.9232 13.1777 25.9079 13.0768 25.9955 12.9752V13.2793Z" fill="#222222"/>
<path d="M13.0349 23.9694H8.02027C7.40455 23.9694 7.11827 23.6894 7.11764 23.0763C7.11764 21.042 7.11764 19.0076 7.11764 16.973C7.11764 16.17 7.30807 15.4223 7.78541 14.7627C7.81017 14.7285 7.83302 14.6929 7.8546 14.6567C7.99933 14.4155 7.97394 14.2086 7.78351 14.0778C7.59308 13.9471 7.37789 14.0016 7.21222 14.2206C6.61871 15.0192 6.33942 15.9205 6.34005 16.9127C6.34005 18.0267 6.33497 19.1413 6.3445 20.2554C6.3445 20.4528 6.29625 20.5048 6.09757 20.5036C4.64586 20.4947 3.19352 20.4991 1.74181 20.4985C1.09562 20.4985 0.820128 20.2198 0.820128 19.5717C0.820128 17.529 0.81505 15.4857 0.820128 13.4431C0.826476 11.6778 1.91256 10.2826 3.60485 9.86805C4.08917 9.74935 4.55192 9.73158 5.04576 9.97279C6.02648 10.452 7.07067 10.5079 8.12628 10.2083C8.21579 10.1829 8.30402 10.155 8.39479 10.1372C8.5776 10.101 8.71661 10.1626 8.76676 10.3505C8.94071 11.0036 9.24018 11.6165 9.64845 12.1551C9.8027 12.3614 9.73922 12.536 9.49547 12.6337C9.22252 12.7442 8.94196 12.833 8.68043 12.9721C8.38336 13.1307 8.27736 13.3231 8.38146 13.5478C8.48556 13.7725 8.72677 13.8182 9.01622 13.6671C9.43519 13.4494 9.89076 13.3108 10.36 13.2583C10.6769 13.2202 10.998 13.2751 11.2842 13.4164C12.5487 14.0004 13.836 14.0226 15.0928 13.4164C15.6349 13.1549 16.1129 13.2945 16.5972 13.4748C18.0407 14.0124 18.9217 15.2997 18.9325 16.9025C18.9465 18.9706 18.9382 21.0393 18.9325 23.1074C18.9325 23.685 18.6336 23.9694 18.0502 23.97L13.0349 23.9694Z" fill="white"/>
<path d="M16.3655 12.5582C17.0371 11.8765 17.4795 11.0875 17.6445 10.1538C17.6744 9.983 17.7639 10.042 17.8616 10.0795C18.4131 10.294 19.0017 10.3967 19.5933 10.3816C20.2064 10.3651 20.8107 10.2591 21.349 9.96776C21.7178 9.76781 22.0612 9.77099 22.4389 9.86176C24.0893 10.2598 25.2103 11.6601 25.223 13.3904C25.2389 15.4851 25.2293 17.5799 25.223 19.6708C25.223 20.1894 24.9266 20.496 24.4067 20.496C22.8959 20.503 21.3846 20.496 19.8732 20.503C19.6828 20.503 19.7043 20.4008 19.7043 20.2833C19.7043 19.2112 19.684 18.1385 19.7088 17.067C19.7634 14.7285 18.2126 13.0457 16.4226 12.6071C16.4112 12.6033 16.3998 12.5874 16.3655 12.5582Z" fill="white"/>
<path d="M13.1942 13.0762C11.0735 13.0673 9.42882 11.3884 9.43262 9.23717C9.43262 7.21861 11.1465 5.55552 13.2279 5.55933C15.2858 5.55933 16.9565 7.26368 16.9578 9.36095C16.959 11.3852 15.2344 13.087 13.1942 13.0762Z" fill="white"/>
</svg>
