<svg width="30" height="30" viewBox="0 0 30 30" fill="none" xmlns="http://www.w3.org/2000/svg">
<g clip-path="url(#clip0_301_1734)">
<path d="M29.9939 9.12458C29.8214 9.39604 29.5725 9.47013 29.2579 9.4677C27.8064 9.45555 26.3544 9.4677 24.9029 9.45616C24.6643 9.45616 24.5993 9.50657 24.5993 9.75374C24.6078 14.5761 24.6092 19.3985 24.6035 24.2208C24.6035 26.0008 23.8055 27.312 22.2035 28.1076C21.5142 28.4507 20.7672 28.4804 20.013 28.4798C14.7331 28.4744 9.45261 28.4999 4.17336 28.4665C1.72351 28.4507 0.110523 26.5085 0.0680123 24.448C0.0522225 23.6688 0.0607247 22.889 0.0680123 22.1099C0.0680123 21.6902 0.253845 21.5153 0.681991 21.5147C1.80246 21.5147 2.92232 21.5062 4.04279 21.5202C4.28024 21.5232 4.32579 21.4497 4.32761 21.2287C4.36162 15.6761 4.41567 10.1236 4.43511 4.57044C4.43996 3.10806 5.4335 1.8801 6.75499 1.54851C7.0399 1.48318 7.3318 1.4534 7.62403 1.45985C13.9849 1.45985 20.3462 1.45985 26.7078 1.45985C28.3985 1.45985 29.6636 2.51351 29.9496 4.14654C29.9538 4.17022 29.9806 4.18966 29.9964 4.21091L29.9939 9.12458Z" fill="#222222" stroke="#222222" stroke-width="0.4"/>
<path d="M24.5058 2.46631C24.3801 2.64304 24.2507 2.81005 24.1371 2.98677C23.7685 3.56067 23.6252 4.19165 23.6258 4.8694C23.6306 11.3092 23.6331 17.749 23.6331 24.1888C23.6331 25.282 23.2408 26.1674 22.396 26.8652C21.3909 27.696 19.7045 27.7057 18.6775 26.8937C17.7969 26.1972 17.3749 25.2996 17.3864 24.184C17.3931 23.5311 17.3864 22.8789 17.3864 22.226C17.3864 21.6618 17.2388 21.5137 16.6819 21.5137C12.9895 21.5137 9.29716 21.5157 5.60478 21.5197C5.34181 21.5197 5.27076 21.459 5.27319 21.1894C5.32218 15.6949 5.36449 10.2003 5.40012 4.70543C5.40437 4.18012 5.4906 3.68213 5.82523 3.25216C6.30196 2.64122 6.94327 2.42259 7.6951 2.4238C10.7446 2.42866 13.7938 2.42866 16.8429 2.4238C19.2887 2.4238 21.7341 2.4238 24.179 2.4238C24.2829 2.42927 24.391 2.3983 24.5058 2.46631Z" fill="white" stroke="#222222" stroke-width="0.4"/>
<path d="M17.823 27.4708C17.7471 27.5443 17.6651 27.5115 17.5923 27.5115C13.1529 27.5139 8.71333 27.5139 4.27357 27.5115C2.64236 27.5115 1.38282 26.4954 1.09557 24.9359C0.954066 24.1677 1.05852 23.3812 1.03848 22.6033C1.03848 22.5146 1.08281 22.4848 1.1648 22.4873C1.23282 22.4873 1.30083 22.4873 1.36885 22.4873C6.27583 22.4873 11.1828 22.4848 16.0898 22.48C16.3783 22.48 16.436 22.5571 16.4347 22.8316C16.4347 23.5409 16.374 24.2533 16.4748 24.9572C16.5983 25.8814 17.0433 26.7327 17.7319 27.3615C17.7646 27.396 17.795 27.4325 17.823 27.4708Z" fill="white" stroke="#222222" stroke-width="0.4"/>
<path d="M26.8056 8.48449C26.1533 8.48449 25.5017 8.47964 24.8501 8.48814C24.6758 8.48814 24.5987 8.46688 24.6005 8.25919C24.612 7.08163 24.6187 5.90469 24.6005 4.72774C24.5829 3.38561 25.7458 2.28882 27.1153 2.45462C28.0263 2.56454 28.9372 3.41294 28.9882 4.33725C29.0641 5.66845 29.0016 7.00208 29.021 8.33449C29.021 8.50939 28.9245 8.48753 28.8164 8.48753L26.8056 8.48449Z" fill="white" stroke="#222222" stroke-width="0.4"/>
<path d="M18.4801 9.05217C18.4437 9.64065 18.5585 10.3652 18.4158 11.0781C18.2239 12.0389 17.7526 12.8393 16.9431 13.4095C16.1572 13.9646 15.3568 14.4984 14.5649 15.0493C14.3505 15.1974 14.1367 15.2315 13.9157 15.0808C13.0503 14.4869 12.1618 13.9227 11.3292 13.2851C10.4225 12.5909 9.97005 11.6223 9.94637 10.4812C9.92329 9.37161 9.94637 8.26147 9.93786 7.15133C9.93786 6.87258 10.0484 6.69403 10.2925 6.57439C11.4865 5.99017 12.6794 5.40311 13.8713 4.81322C13.974 4.75794 14.0888 4.729 14.2054 4.729C14.3219 4.729 14.4367 4.75794 14.5394 4.81322C15.7305 5.40352 16.923 5.99057 18.117 6.57439C18.3739 6.6995 18.4905 6.8829 18.4844 7.17319C18.471 7.75377 18.4801 8.33799 18.4801 9.05217Z" fill="#222222" stroke="#222222" stroke-width="0.4"/>
<path d="M14.4179 19.7009H8.86658C8.77892 19.7046 8.69111 19.7032 8.60362 19.6966C8.32548 19.6639 8.13965 19.4762 8.13114 19.2284C8.12264 18.9661 8.30544 18.7681 8.60059 18.7286C8.68781 18.7208 8.77545 18.7188 8.86294 18.7225H20.0858C20.4939 18.728 20.7162 18.8999 20.7174 19.2084C20.7186 19.5169 20.497 19.6985 20.0895 19.6991C18.1984 19.7011 16.3078 19.7017 14.4179 19.7009Z" fill="#222222" stroke="#222222" stroke-width="0.4"/>
<path d="M14.4458 16.4875C16.3358 16.4875 18.2257 16.4875 20.1156 16.4875C20.5018 16.4875 20.7193 16.6642 20.7126 16.9734C20.7077 17.2163 20.5856 17.379 20.3445 17.4301C20.2298 17.4506 20.1131 17.4594 19.9966 17.4562C16.2856 17.4562 12.5741 17.4562 8.86233 17.4562C8.75552 17.4584 8.6487 17.4521 8.54289 17.4373C8.28236 17.3948 8.12143 17.2023 8.12993 16.9551C8.13356 16.8372 8.18086 16.7248 8.26266 16.6397C8.34446 16.5547 8.45493 16.503 8.57265 16.4948C8.6599 16.4876 8.74751 16.4856 8.835 16.4887L14.4458 16.4875Z" fill="#222222" stroke="#222222" stroke-width="0.4"/>
<path d="M10.9113 9.11544C10.9113 8.60895 10.9168 8.10247 10.9113 7.59719C10.9113 7.43504 10.9447 7.33605 11.1069 7.25771C12.083 6.78564 13.0569 6.30466 14.0286 5.81477C14.0861 5.78232 14.1513 5.76588 14.2173 5.76716C14.2833 5.76844 14.3477 5.7874 14.4039 5.82206C15.3665 6.30789 16.3333 6.77977 17.2995 7.2571C17.4119 7.31237 17.5194 7.35063 17.5176 7.52128C17.5048 8.5628 17.5352 9.60614 17.4896 10.6464C17.4538 11.4657 17.0536 12.1343 16.3874 12.6147C15.7212 13.0951 15.0379 13.5366 14.3687 14.0042C14.2436 14.0917 14.161 14.0874 14.0389 14.0042C13.3782 13.5414 12.7029 13.1011 12.0476 12.6275C11.297 12.0839 10.9277 11.3284 10.9126 10.4035C10.9059 9.97234 10.9113 9.5442 10.9113 9.11544Z" fill="white" stroke="#222222" stroke-width="0.4"/>
<path d="M13.7359 11.3949C13.5894 11.3822 13.4522 11.3176 13.3491 11.2127C13.0545 10.9157 12.7557 10.6218 12.4673 10.3187C12.2322 10.071 12.2201 9.79403 12.4169 9.58997C12.6136 9.38592 12.91 9.40171 13.1657 9.64463C13.2959 9.76204 13.419 9.88717 13.5343 10.0193C13.6715 10.1863 13.7693 10.21 13.9363 10.0315C14.3408 9.59726 14.7708 9.18551 15.1922 8.76708C15.2644 8.68836 15.3472 8.62009 15.4382 8.56424C15.5302 8.51456 15.6361 8.4967 15.7394 8.51344C15.8426 8.53017 15.9374 8.58056 16.0091 8.65677C16.0807 8.73298 16.1251 8.83073 16.1355 8.93482C16.1458 9.0389 16.1214 9.14348 16.0661 9.23227C16.0177 9.30514 15.9613 9.37236 15.8979 9.43268C15.3277 10.006 14.755 10.5762 14.1853 11.1495C14.059 11.2771 13.923 11.3815 13.7359 11.3949Z" fill="#222222" stroke="#222222" stroke-width="0.4"/>
</g>
<defs>
<clipPath id="clip0_301_1734">
<rect width="30" height="30" fill="white"/>
</clipPath>
</defs>
</svg>
