<svg width="24" height="24" viewBox="0 0 24 24" fill="none" xmlns="http://www.w3.org/2000/svg">
<path d="M21.7488 23.5457H2.30812C2.22913 23.4571 2.24549 23.3477 2.2517 23.245C2.29536 22.0361 2.55779 20.8451 3.02628 19.7298C3.46883 18.6935 4.08936 17.7426 4.85977 16.9203C6.4172 15.2312 8.33005 14.2135 10.5983 13.8671C12.7009 13.5472 14.7031 13.9105 16.5873 14.8905C18.4072 15.8729 19.8807 17.3914 20.8078 19.2401C21.3555 20.3363 21.6815 21.53 21.7668 22.7525C21.7792 22.9392 21.8176 23.1237 21.8074 23.3121C21.8041 23.3945 21.8114 23.4791 21.7488 23.5457Z" fill="white"/>
<path d="M21.7486 23.5457C21.7289 21.2377 21.0152 19.1707 19.5406 17.3964C17.9045 15.4219 15.8172 14.2343 13.2604 13.9083C10.8955 13.6064 8.6908 14.095 6.71627 15.4207C4.26278 17.0664 2.79937 19.3664 2.39543 22.3147C2.33846 22.7225 2.30925 23.1338 2.30799 23.5457H0.508911C0.693953 18.2206 3.39003 14.6732 8.19378 12.6175C4.72651 10.1623 4.49464 5.34444 7.29114 2.47065C9.82982 -0.135726 14.2268 -0.135726 16.7644 2.47065C19.5676 5.34782 19.3222 10.1741 15.8217 12.6462C16.1173 12.7687 16.4106 12.8764 16.6927 13.009C20.3033 14.7077 22.5339 17.5075 23.3497 21.4211C23.4276 21.794 23.4524 22.1776 23.5015 22.5567C23.506 22.5917 23.4964 22.6334 23.5466 22.6447V22.8247C23.5396 22.8299 23.5339 22.8367 23.53 22.8446C23.5261 22.8524 23.524 22.861 23.524 22.8698C23.524 22.8786 23.5261 22.8872 23.53 22.895C23.5339 22.9029 23.5396 22.9097 23.5466 22.9149V23.1406C23.5285 23.1833 23.5191 23.2293 23.5191 23.2757C23.5191 23.3221 23.5285 23.3681 23.5466 23.4108C23.5466 23.4853 23.5754 23.5547 23.4338 23.5513C22.8736 23.5378 22.3111 23.5457 21.7486 23.5457Z" fill="#002840"/>
<path d="M23.5483 23.4109C23.5151 23.3737 23.4968 23.3256 23.4968 23.2757C23.4968 23.2259 23.5151 23.1778 23.5483 23.1406V23.4109Z" fill="#002840"/>
<path d="M23.5483 22.9155C23.4919 22.885 23.4812 22.8551 23.5483 22.8252V22.9155Z" fill="#002840"/>
<path d="M16.8879 7.1633C16.8823 9.84076 14.6877 12.0297 12.0171 12.019C9.33847 12.0077 7.15351 9.80861 7.16931 7.13904C7.1851 4.46948 9.36386 2.29411 12.0295 2.29468C14.6951 2.29524 16.8936 4.49035 16.8879 7.1633Z" fill="white"/>
</svg>
