<svg width="50" height="50" viewBox="0 0 50 50" fill="none" xmlns="http://www.w3.org/2000/svg">
<path d="M24.8367 47.1591C20.6819 47.098 16.4234 46.5909 12.3524 45.0085C10.608 44.3295 8.9731 43.456 7.68474 42.0483C6.72168 40.9972 6.21742 39.7756 6.25719 38.3324C6.39924 33.3452 8.17622 29.0554 11.6549 25.4758C12.3893 24.7187 13.412 24.6605 14.1208 25.3196C14.8538 26.0028 14.8722 27.0469 14.1208 27.8224C11.9682 29.9848 10.5131 32.7426 9.94327 35.7401C9.80803 36.5263 9.71321 37.3191 9.65918 38.1151C9.5839 38.9673 9.92907 39.5866 10.5328 40.1207C11.547 41.0156 12.7458 41.5824 14.0015 42.0284C18.2458 43.5312 22.6393 43.8991 27.1009 43.6847C30.1237 43.5426 33.091 43.0781 35.9504 42.0469C37.0205 41.6735 38.0376 41.1626 38.9759 40.527C39.9972 39.8168 40.4475 38.9261 40.3282 37.6321C39.9788 33.8338 38.5598 30.5497 35.8751 27.831C35.449 27.4048 35.1961 26.919 35.2771 26.3097C35.3055 25.9884 35.4286 25.6829 35.631 25.4318C35.8333 25.1806 36.1056 24.9953 36.4134 24.8991C37.1038 24.6562 37.7046 24.8409 38.2146 25.3452C39.9995 27.1044 41.4083 29.208 42.3552 31.5284C43.2031 33.6359 43.6748 35.8758 43.7487 38.1463C43.8211 39.9062 43.1521 41.3153 41.8921 42.4872C40.341 43.9304 38.4603 44.7869 36.483 45.4432C32.76 46.6776 28.9163 47.1179 24.8367 47.1591Z" fill="#222222"/>
<path d="M13.0682 14.7557C13.0682 8.2046 18.4262 2.84523 24.9859 2.84949C31.6336 2.84949 36.9091 8.18046 36.9177 14.9006C36.9262 21.3466 31.5072 26.716 25.0029 26.7032C21.8362 26.7005 18.8002 25.4405 16.5622 23.2002C14.3242 20.9598 13.0675 17.9224 13.0682 14.7557Z" fill="#222222"/>
<path d="M24.9857 23.2955C20.2982 23.2955 16.4871 19.4745 16.4814 14.7529C16.4814 10.1166 20.3039 6.2714 24.9331 6.26004C29.6604 6.24867 33.5099 10.0455 33.517 14.7245C33.5233 15.8485 33.3073 16.9627 32.8813 18.0028C32.4553 19.043 31.8278 19.9886 31.0348 20.7853C30.2419 21.5819 29.2992 22.2138 28.261 22.6447C27.2229 23.0755 26.1097 23.2967 24.9857 23.2955Z" fill="white"/>
</svg>
