<svg width="30" height="30" viewBox="0 0 30 30" fill="none" xmlns="http://www.w3.org/2000/svg">
<path d="M6.1547 0.00463867H23.8437C24.6133 0.0437012 25.2164 0.395263 25.6883 0.988232C26.0854 1.48888 26.3118 2.10351 26.3344 2.74214C26.3391 2.83042 26.3344 2.91792 26.3344 3.00542C26.3344 11.1794 26.3344 19.3531 26.3344 27.5265C26.3344 28.2703 26.1531 28.9273 25.5937 29.4585C25.2613 29.777 24.8267 29.9672 24.3672 29.9953H23.6063C23.0742 29.9429 22.6687 29.6656 22.3023 29.2921C20.2237 27.2015 18.1404 25.1156 16.0523 23.0343C15.7484 22.7296 15.4164 22.55 14.9664 22.5562C14.5375 22.5625 14.225 22.7468 13.9391 23.0335C11.8219 25.1549 9.70287 27.2739 7.58204 29.3906C7.25 29.7226 6.87891 29.9789 6.37657 29.9617C6.28204 29.975 6.18125 29.9312 6.09141 29.9921H5.56485C4.74219 29.896 4.19532 29.4281 3.86016 28.6984C3.69532 28.3398 3.65626 27.95 3.65626 27.5546C3.65626 23.9645 3.65626 20.3747 3.65626 16.7851C3.65626 12.171 3.65626 7.55698 3.65626 2.94292C3.64174 2.26421 3.85094 1.59957 4.25157 1.05151C4.72422 0.418701 5.35235 0.0476074 6.1547 0.00463867Z" fill="#222222"/>
<path d="M6.39609 29.9399C6.39052 29.9515 6.38607 29.9635 6.38281 29.9759C6.38281 29.9813 6.38281 29.9884 6.38906 29.9954H6.09375C6.18281 29.9016 6.29141 29.9298 6.39609 29.9399Z" fill="#222222"/>
<path d="M5.52029 15.2703V2.99995C5.52029 2.1187 5.87967 1.76245 6.77029 1.76245H23.2547C24.114 1.76245 24.4797 2.12808 24.4797 2.99136V27.5609C24.4847 27.6486 24.4847 27.7365 24.4797 27.8242C24.475 27.9025 24.4497 27.9782 24.4062 28.0436C24.3627 28.1089 24.3026 28.1615 24.2321 28.196C24.1617 28.2305 24.0833 28.2456 24.005 28.2399C23.9267 28.2341 23.8514 28.2077 23.7867 28.1632C23.6915 28.0951 23.6042 28.0165 23.5265 27.9289C21.4625 25.8653 19.3984 23.802 17.3344 21.739C15.9617 20.3679 14.0453 20.3687 12.6773 21.739L6.48358 27.9281C6.39918 28.0223 6.30278 28.105 6.19686 28.1742C5.88436 28.3531 5.55311 28.1687 5.52733 27.8062C5.52108 27.7195 5.52733 27.6312 5.52733 27.5429L5.52029 15.2703Z" fill="white"/>
</svg>
