<svg width="34" height="34" viewBox="0 0 34 34" fill="none" xmlns="http://www.w3.org/2000/svg">
<path d="M6.97531 0.00537109H27.0229C27.895 0.0496419 28.5786 0.448079 29.1134 1.12011C29.5635 1.68751 29.8201 2.38409 29.8456 3.10787C29.8509 3.20792 29.8456 3.30709 29.8456 3.40626C29.8456 12.6701 29.8456 21.9336 29.8456 31.1968C29.8456 32.0397 29.6402 32.7844 29.0062 33.3865C28.6295 33.7474 28.1369 33.9629 27.6161 33.9947H26.7537C26.1508 33.9354 25.6912 33.6211 25.276 33.1979C22.9202 30.8285 20.5591 28.4644 18.1926 26.1057C17.8482 25.7604 17.4719 25.5567 16.9619 25.5638C16.4758 25.5709 16.1217 25.7799 15.7976 26.1048C13.3981 28.509 10.9966 30.9105 8.59296 33.3094C8.21666 33.6857 7.79609 33.9762 7.22677 33.9567C7.11963 33.9717 7.00541 33.9221 6.90359 33.9912H6.30682C5.37447 33.8823 4.75468 33.3519 4.37484 32.525C4.18802 32.1186 4.14375 31.6767 4.14375 31.2287C4.14375 27.1599 4.14375 23.0914 4.14375 19.0232C4.14375 13.794 4.14375 8.5647 4.14375 3.33542C4.1273 2.56621 4.36438 1.81295 4.81843 1.19183C5.35411 0.474641 6.06599 0.054069 6.97531 0.00537109Z" fill="#222222"/>
<path d="M7.24891 33.9319C7.24259 33.9449 7.23755 33.9586 7.23386 33.9726C7.23386 33.9788 7.23386 33.9868 7.24094 33.9947H6.90625C7.00719 33.8885 7.13026 33.9204 7.24891 33.9319Z" fill="#222222"/>
<path d="M6.25635 17.3064V3.40006C6.25635 2.40131 6.66364 1.99756 7.67301 1.99756H26.3553C27.3293 1.99756 27.7436 2.41193 27.7436 3.39032V31.2358C27.7494 31.3352 27.7494 31.4348 27.7436 31.5342C27.7384 31.623 27.7097 31.7088 27.6604 31.7828C27.6111 31.8568 27.543 31.9165 27.4631 31.9555C27.3832 31.9946 27.2944 32.0118 27.2057 32.0053C27.117 31.9988 27.0316 31.9688 26.9583 31.9184C26.8503 31.8412 26.7515 31.7521 26.6634 31.6528C24.3242 29.3141 21.9849 26.9758 19.6456 24.6377C18.0899 23.0838 15.918 23.0846 14.3677 24.6377L7.34807 31.6519C7.25242 31.7587 7.14317 31.8525 7.02312 31.9308C6.66895 32.1336 6.29354 31.9246 6.26432 31.5138C6.25724 31.4155 6.26432 31.3155 6.26432 31.2154L6.25635 17.3064Z" fill="white"/>
</svg>
