<svg width="18" height="24" viewBox="0 0 18 24" fill="none" xmlns="http://www.w3.org/2000/svg">
<path d="M0.78418 12.2344V1.60009C0.78418 0.836338 1.09564 0.527588 1.86751 0.527588H16.154C16.8988 0.527588 17.2156 0.844464 17.2156 1.59264V22.8862C17.22 22.9622 17.22 23.0384 17.2156 23.1144C17.2116 23.1823 17.1897 23.2479 17.152 23.3045C17.1143 23.3612 17.0622 23.4067 17.0011 23.4366C16.94 23.4665 16.8721 23.4797 16.8043 23.4747C16.7364 23.4697 16.6711 23.4468 16.6151 23.4083C16.5325 23.3492 16.4569 23.2811 16.3896 23.2051C14.6007 21.4167 12.8119 19.6286 11.023 17.8406C9.8334 16.6523 8.17251 16.653 6.98694 17.8406L1.61902 23.2045C1.54588 23.2861 1.46234 23.3578 1.37054 23.4177C1.0997 23.5728 0.812619 23.413 0.790275 23.0988C0.784859 23.0237 0.790275 22.9472 0.790275 22.8707L0.78418 12.2344Z" fill="#222222"/>
</svg>
