<svg width="28" height="28" viewBox="0 0 28 28" fill="none" xmlns="http://www.w3.org/2000/svg">
<path d="M25.8308 26.9961C25.5508 26.8882 25.3363 26.6946 25.1274 26.4883C23.1601 24.5155 21.1923 22.5437 19.2241 20.5729C19.0889 20.4371 19.0115 20.432 18.8636 20.552C17.4671 21.6787 15.8935 22.4379 14.1289 22.7623C11.0039 23.3374 8.12651 22.7299 5.55507 20.8415C3.30229 19.1873 1.85122 16.9846 1.29516 14.2437C0.660397 11.1289 1.26406 8.24326 3.12075 5.65088C4.67148 3.48696 6.74208 2.03779 9.33066 1.40429C12.6486 0.591795 15.738 1.16499 18.4872 3.20766C21.416 5.38427 22.921 8.34292 22.9635 11.9941C22.9927 14.4697 22.2183 16.699 20.7057 18.6667C20.4067 19.0552 20.4105 19.0584 20.7539 19.4018C22.6645 21.312 24.5754 23.2218 26.4865 25.1312C26.6959 25.34 26.8895 25.5539 26.9943 25.8339V26.2389C26.9228 26.6739 26.6689 26.9278 26.2326 27.0006L25.8308 26.9961Z" fill="#A7A7A7"/>
<path d="M26.2357 26.9962C26.4142 26.9392 26.5765 26.8403 26.709 26.7078C26.8415 26.5753 26.9404 26.413 26.9974 26.2345C26.9974 26.4541 26.9917 26.6744 26.9974 26.8934C27.0006 26.9816 26.9816 27.0007 26.8933 26.9975C26.6756 26.9905 26.4541 26.9962 26.2357 26.9962Z" fill="#F1F1F1"/>
<path d="M2.97791 12.005C2.98997 7.01697 7.07278 2.94686 12.036 2.97796C17.0284 3.0097 21.0567 7.01317 21.0497 12.0234C21.0528 13.21 20.8212 14.3855 20.3683 15.4822C19.9154 16.579 19.2501 17.5754 18.4107 18.414C17.5712 19.2527 16.5742 19.9171 15.4771 20.369C14.3799 20.8209 13.2042 21.0514 12.0176 21.0472C6.96677 21.0497 2.9906 16.9739 2.97791 12.005Z" fill="#F1F1F1"/>
<path d="M4.95587 11.7129C4.96539 9.86769 5.57858 8.28522 6.86017 6.97252C7.02965 6.79193 7.26386 6.68596 7.5114 6.67787C7.75893 6.66978 7.99956 6.76022 8.18048 6.92936C8.5753 7.28673 8.62482 7.85929 8.25538 8.26236C7.67711 8.89713 7.23976 9.59537 7.0233 10.4333C6.87985 10.9963 6.87921 11.565 6.89127 12.1395C6.9046 12.7514 6.43678 13.1735 5.83502 13.1171C5.62847 13.0961 5.43492 13.0064 5.28533 12.8625C5.13573 12.7185 5.03873 12.5286 5.00983 12.323C4.97872 12.116 4.97111 11.9046 4.95587 11.7129Z" fill="#A7A7A7"/>
</svg>
