<svg width="30" height="30" viewBox="0 0 30 30" fill="none" xmlns="http://www.w3.org/2000/svg">
<path d="M29.9367 5.74368C29.4445 6.5593 28.8047 7.25227 28.1195 7.90618C27.7969 8.21923 27.4502 8.50657 27.0828 8.76555C26.9422 8.86321 26.9133 8.97102 26.9187 9.13352C27.189 17.032 21.9969 24.7757 13.6094 26.7046C8.92185 27.782 4.46873 27.1202 0.328101 24.6218C0.238257 24.5679 0.155444 24.5015 0.0687256 24.4413C1.5531 24.5788 3.0281 24.5046 4.48279 24.1421C6.11013 23.7366 7.98044 22.832 9.04294 21.9116C6.25935 21.664 4.38513 20.2405 3.33982 17.6249C4.28279 17.7366 5.15935 17.7609 6.08826 17.5077C2.54294 16.6406 1.10232 13.5452 1.23513 11.4179C1.92401 11.7855 2.67442 12.0238 3.4492 12.121C3.5906 12.139 3.73435 12.1382 3.95935 12.1507C2.61326 11.1702 1.75701 9.94759 1.40623 8.39134C1.05544 6.83509 1.307 5.37493 2.06325 3.99055C2.16013 3.97337 2.18435 4.04993 2.22419 4.0968C5.04502 7.42493 8.60622 9.45253 12.9078 10.1796C13.4453 10.2695 13.9929 10.2999 14.5351 10.3624C14.6984 10.382 14.7695 10.3812 14.7289 10.1601C14.1734 6.98743 15.9554 3.98821 18.975 3.0968C21.2664 2.42024 23.307 2.95227 25.0578 4.57258C25.214 4.71555 25.3343 4.75618 25.5422 4.70852C26.7012 4.44563 27.8176 4.02117 28.8586 3.44759C28.9179 3.41477 28.9781 3.38118 29.039 3.35305C29.0531 3.34602 29.075 3.35696 29.1242 3.36477C28.6554 4.74524 27.7961 5.80305 26.5992 6.61868C27.7672 6.51321 28.8593 6.15852 29.9367 5.74368Z" fill="white"/>
</svg>
