<svg width="30" height="26" viewBox="0 0 30 26" fill="none" xmlns="http://www.w3.org/2000/svg">
<path d="M29.9368 3.7438C29.4446 4.55942 28.8048 5.2524 28.1196 5.9063C27.797 6.21936 27.4504 6.50669 27.0829 6.76568C26.9423 6.86333 26.9134 6.97114 26.9189 7.13364C27.1892 15.0321 21.997 22.7758 13.6095 24.7047C8.92197 25.7821 4.46885 25.1204 0.328223 22.6219C0.238379 22.568 0.155566 22.5016 0.0688477 22.4415C1.55322 22.579 3.02822 22.5047 4.48291 22.1422C6.11025 21.7368 7.98057 20.8321 9.04307 19.9118C6.25947 19.6641 4.38525 18.2407 3.33994 15.625C4.28291 15.7368 5.15947 15.761 6.08838 15.5079C2.54307 14.6407 1.10244 11.5454 1.23525 9.41802C1.92413 9.78566 2.67455 10.024 3.44932 10.1211C3.59072 10.1391 3.73447 10.1383 3.95947 10.1508C2.61338 9.17036 1.75713 7.94771 1.40635 6.39146C1.05557 4.83521 1.30713 3.37505 2.06338 1.99067C2.16025 1.97349 2.18447 2.05005 2.22431 2.09693C5.04515 5.42505 8.60635 7.45265 12.9079 8.17974C13.4454 8.26958 13.9931 8.30005 14.5353 8.36255C14.6985 8.38208 14.7696 8.3813 14.729 8.16021C14.1735 4.98755 15.9556 1.98833 18.9751 1.09693C21.2665 0.420365 23.3071 0.952395 25.0579 2.57271C25.2142 2.71568 25.3345 2.7563 25.5423 2.70864C26.7014 2.44575 27.8177 2.02129 28.8587 1.44771C28.9181 1.41489 28.9782 1.3813 29.0392 1.35318C29.0532 1.34615 29.0751 1.35708 29.1243 1.3649C28.6556 2.74536 27.7962 3.80318 26.5993 4.6188C27.7673 4.51333 28.8595 4.15864 29.9368 3.7438Z" fill="#002840"/>
</svg>
